<svg width="20" height="16" viewBox="0 0 20 16" fill="none" xmlns="http://www.w3.org/2000/svg">
<path d="M8.00895 1.66683C8.37723 1.25526 8.34213 0.623069 7.93056 0.254789C7.519 -0.11349 6.8868 -0.0783975 6.51853 0.333171L8.00895 1.66683ZM1 8L0.254789 7.33317C-0.0849297 7.71282 -0.0849297 8.28718 0.254789 8.66683L1 8ZM6.51853 15.6668C6.8868 16.0784 7.519 16.1135 7.93056 15.7452C8.34213 15.3769 8.37723 14.7447 8.00895 14.3332L6.51853 15.6668ZM19 9C19.5523 9 20 8.55228 20 8C20 7.44772 19.5523 7 19 7V9ZM6.51853 0.333171L0.254789 7.33317L1.74521 8.66683L8.00895 1.66683L6.51853 0.333171ZM0.254789 8.66683L6.51853 15.6668L8.00895 14.3332L1.74521 7.33317L0.254789 8.66683ZM1 9H19V7H1V9Z" fill="white"/>
</svg>
