<svg width="20" height="16" viewBox="0 0 20 16" fill="none" xmlns="http://www.w3.org/2000/svg">
<path d="M11.9911 14.3332C11.6228 14.7447 11.6579 15.3769 12.0694 15.7452C12.481 16.1135 13.1132 16.0784 13.4815 15.6668L11.9911 14.3332ZM19 8L19.7452 8.66683C20.0849 8.28718 20.0849 7.71282 19.7452 7.33317L19 8ZM13.4815 0.333171C13.1132 -0.0783975 12.481 -0.11349 12.0694 0.25479C11.6579 0.623069 11.6228 1.25526 11.9911 1.66683L13.4815 0.333171ZM1 7C0.447715 7 -3.30121e-07 7.44772 -3.0598e-07 8C-2.81839e-07 8.55229 0.447715 9 1 9L1 7ZM13.4815 15.6668L19.7452 8.66683L18.2548 7.33317L11.9911 14.3332L13.4815 15.6668ZM19.7452 7.33317L13.4815 0.333171L11.9911 1.66683L18.2548 8.66683L19.7452 7.33317ZM19 7L1 7L1 9L19 9L19 7Z" fill="white"/>
</svg>
