<?xml version="1.0" encoding="iso-8859-1"?>
<!-- Generator: Adobe Illustrator 21.1.0, SVG Export Plug-In . SVG Version: 6.00 Build 0)  -->
<svg version="1.1" id="Layer_1" xmlns="http://www.w3.org/2000/svg" xmlns:xlink="http://www.w3.org/1999/xlink" x="0px" y="0px"
	 viewBox="0 0 88 77" style="enable-background:new 0 0 88 77;" xml:space="preserve">
<title>Branding/Auction-icon</title>
<desc>Created with Sketch.</desc>
<g id="Branding_x2F_Auction-icon">
	<g id="auction" transform="translate(0.000000, 0.039062)">
		<path id="Fill-1" style="fill:#ED1D24;" d="M11.692,49.691h23.384c1.612,0,2.923-1.311,2.923-2.923v-5.846
			c0-1.612-1.311-2.923-2.923-2.923H18.999c-0.807,0-1.461,0.655-1.461,1.462s0.655,1.461,1.461,1.461h16.076v5.846H11.692v-5.846
			h1.461c0.807,0,1.461-0.655,1.461-1.461V16.076c0-0.807-0.655-1.461-1.461-1.461c-0.807,0-1.461,0.655-1.461,1.461v21.922
			c-1.612,0-2.923,1.311-2.923,2.923v5.846C8.769,48.38,10.08,49.691,11.692,49.691"/>
		<path id="Fill-3" style="fill:#ED1D24;" d="M29.274,53.72l-1.461,5.846c-0.196,0.783,0.281,1.575,1.063,1.773
			c0.12,0.029,0.238,0.044,0.357,0.044c0.655,0,1.25-0.444,1.416-1.108l1.461-5.845c0.196-0.783-0.281-1.577-1.063-1.773
			C30.265,52.462,29.471,52.938,29.274,53.72"/>
		<path id="Fill-5" style="fill:#ED1D24;" d="M11.692,11.692h16.076c0.807,0,1.461-0.655,1.461-1.461s-0.655-1.461-1.461-1.461
			H11.692V2.923h23.384v5.846h-1.461c-0.807,0-1.461,0.655-1.461,1.461v23.384c0,0.807,0.655,1.461,1.461,1.461
			s1.461-0.655,1.461-1.461V11.692c1.612,0,2.923-1.311,2.923-2.923V2.923C37.999,1.311,36.688,0,35.076,0H11.692
			C10.08,0,8.769,1.311,8.769,2.923v5.846C8.769,10.381,10.08,11.692,11.692,11.692"/>
		<path id="Fill-7" style="fill:#ED1D24;" d="M39.46,20.461h35.076c0.807,0,1.461-0.655,1.461-1.461
			c0-0.807-0.655-1.461-1.461-1.461H39.46c-0.807,0-1.461,0.655-1.461,1.461C37.999,19.806,38.654,20.461,39.46,20.461"/>
		<path id="Fill-9" style="fill:#ED1D24;" d="M44.273,53.042l-5.846,5.846c-0.572,0.572-0.572,1.495,0,2.067
			c0.285,0.285,0.659,0.428,1.033,0.428c0.374,0,0.748-0.143,1.033-0.428l5.846-5.846c0.572-0.571,0.572-1.495,0-2.067
			C45.768,52.47,44.844,52.47,44.273,53.042"/>
		<path id="Fill-11" style="fill:#ED1D24;" d="M15.721,52.657c-0.782,0.196-1.258,0.989-1.063,1.773l1.461,5.845
			c0.167,0.663,0.761,1.108,1.416,1.108c0.118,0,0.237-0.015,0.357-0.044c0.782-0.197,1.258-0.989,1.063-1.773l-1.461-5.846
			C17.298,52.938,16.505,52.462,15.721,52.657"/>
		<path id="Fill-13" style="fill:#ED1D24;" d="M84.766,14.615h-2.923c-1.612,0-2.923,1.311-2.923,2.923v7.307
			c0,0.807,0.655,1.461,1.461,1.461s1.462-0.655,1.462-1.461v-7.307h2.923v14.615h-2.923v-1.461c0-0.807-0.655-1.461-1.462-1.461
			H39.46c-0.807,0-1.461,0.655-1.461,1.461c0,0.807,0.655,1.461,1.461,1.461h39.46c0,1.612,1.311,2.923,2.923,2.923h2.923
			c1.612,0,2.923-1.311,2.923-2.923V17.538C87.689,15.926,86.378,14.615,84.766,14.615"/>
		<path id="Fill-15" style="fill:#ED1D24;" d="M43.845,73.074H2.923V68.69c0-0.805,0.656-1.461,1.461-1.461h37.999
			c0.805,0,1.461,0.656,1.461,1.461V73.074z M42.383,64.306H4.385C1.967,64.306,0,66.273,0,68.69v5.846
			c0,0.807,0.655,1.461,1.461,1.461h43.845c0.807,0,1.461-0.655,1.461-1.461V68.69C46.768,66.273,44.801,64.306,42.383,64.306z"/>
		<path id="Fill-17" style="fill:#ED1D24;" d="M6.274,60.954c0.285,0.285,0.659,0.428,1.033,0.428c0.374,0,0.748-0.143,1.033-0.428
			c0.572-0.572,0.572-1.497,0-2.068l-5.846-5.845c-0.572-0.572-1.495-0.572-2.067,0c-0.571,0.571-0.571,1.495,0,2.067L6.274,60.954z
			"/>
	</g>
</g>
</svg>
