<?xml version="1.0" encoding="iso-8859-1"?>
<!-- Generator: Adobe Illustrator 21.1.0, SVG Export Plug-In . SVG Version: 6.00 Build 0)  -->
<svg version="1.1" id="Layer_1" xmlns="http://www.w3.org/2000/svg" xmlns:xlink="http://www.w3.org/1999/xlink" x="0px" y="0px"
	 viewBox="0 0 89 93" style="enable-background:new 0 0 89 93;" xml:space="preserve">
<title>Branding/Disposal</title>
<desc>Created with Sketch.</desc>
<g id="Branding_x2F_Disposal">
	<g id="Page-1" transform="translate(5.000000, 9.500000)">
		<g id="Group-3" transform="translate(0.000000, 0.110218)">
			<path id="Fill-1" style="fill:#ED1D24;" d="M75.348,15.689H27.144v-3.575h32.798c0.744,0,1.349-0.604,1.349-1.349
				c0-0.742-0.604-1.347-1.349-1.347H30.139V6.918c0-0.09,0.08-0.168,0.17-0.168h42.666c0.09,0,0.17,0.079,0.17,0.168v2.501H66.31
				c-0.743,0-1.347,0.606-1.347,1.347c0,0.744,0.604,1.349,1.347,1.349h9.037V15.689z M68.242,52.863
				c-0.886-0.245-1.799-0.37-2.718-0.37c-2.209,0-4.312,0.695-6.082,2.012c-0.596,0.444-0.719,1.288-0.278,1.885
				c0.214,0.289,0.53,0.477,0.886,0.53c0.355,0.049,0.711-0.038,0.999-0.254c1.301-0.967,2.848-1.477,4.475-1.477
				c4.138,0,7.505,3.366,7.505,7.504c0,4.137-3.367,7.504-7.505,7.504c-4.137,0-7.504-3.367-7.504-7.504
				c0-0.754,0.111-1.496,0.329-2.206c0.217-0.709-0.182-1.465-0.893-1.684c-0.13-0.039-0.265-0.06-0.398-0.06
				c-0.216,0-0.43,0.053-0.628,0.157c-0.318,0.168-0.552,0.451-0.657,0.796c-0.297,0.966-0.449,1.975-0.449,2.997
				c0,2.199,0.721,4.351,2.037,6.108H38.579c0.897-2.306,1.351-4.737,1.351-7.232v-5.841c0-6.2-2.816-11.94-7.731-15.762
				l-1.531-21.581h41.067L68.242,52.863z M38.168,3.156c0-0.091,0.078-0.17,0.168-0.17h26.61c0.09,0,0.168,0.079,0.168,0.17v0.899
				L38.168,4.053V3.156z M14.241,36.572l0.492-1.762h10.509l0.47,1.762H14.241z M17.534,24.473l0.446,4.323l-2.498-4.323H17.534z
				 M16.238,32.324h7.455v-0.613h-7.455V32.324z M24.449,24.473l-2.746,4.752h-0.97l-0.491-4.752H24.449z M75.936,9.419h-0.098
				V6.918c0-1.578-1.284-2.864-2.864-2.864H67.81V3.156c0-1.578-1.284-2.864-2.864-2.864h-26.61c-1.578,0-2.862,1.285-2.862,2.864
				v0.897h-5.166c-1.58,0-2.864,1.285-2.864,2.865v2.501h-0.889c-1.161,0-2.105,0.945-2.105,2.105v4.755
				c0,1.161,0.945,2.105,2.105,2.105h1.412l1.4,19.737c-0.251-0.135-0.506-0.264-0.761-0.385c0.056-0.293,0.043-0.599-0.035-0.896
				l-0.798-2.994c-0.2-0.754-0.831-1.392-1.597-1.629v-0.886c0-0.908-0.586-1.707-1.428-1.993l2.822-4.884
				c0.341-0.592,0.357-1.269,0.045-1.811c-0.313-0.542-0.908-0.866-1.592-0.866H13.906c-0.683,0-1.278,0.324-1.59,0.866
				c-0.273,0.472-0.297,1.051-0.066,1.591c0.032,0.073,0.069,0.147,0.111,0.22l2.82,4.884c-0.842,0.286-1.428,1.085-1.428,1.993
				v0.903c-0.742,0.25-1.339,0.862-1.543,1.594l-0.838,3c-0.083,0.3-0.097,0.61-0.042,0.906C4.441,41.053,0,48.097,0,55.727v5.841
				c0,2.79,0.566,5.491,1.682,8.031c0.506,1.151,1.647,1.897,2.905,1.897h7.601c0.743,0,1.347-0.606,1.347-1.347
				c0-0.744-0.604-1.349-1.347-1.349H4.587c-0.189,0-0.362-0.111-0.437-0.285c-0.966-2.197-1.455-4.533-1.455-6.947v-5.841
				c0-7.554,4.836-14.165,12.039-16.46h10.464c7.202,2.295,12.04,8.906,12.04,16.46v5.841c0,2.414-0.491,4.751-1.456,6.947
				c-0.076,0.174-0.248,0.285-0.437,0.285H18.858c-0.744,0-1.349,0.604-1.349,1.347s0.604,1.349,1.349,1.349h41.521
				c1.562,0.914,3.338,1.398,5.145,1.398c5.624,0,10.199-4.577,10.199-10.201c0-3.53-1.869-6.852-4.888-8.702l3.608-35.605h1.493
				c1.162,0,2.105-0.945,2.105-2.105v-4.755C78.042,10.364,77.099,9.419,75.936,9.419z"/>
		</g>
		<path id="Fill-4" style="fill:#ED1D24;" d="M63.552,62.803c0-1.086,0.885-1.971,1.972-1.971c1.086,0,1.971,0.885,1.971,1.971
			s-0.885,1.971-1.971,1.971C64.437,64.774,63.552,63.89,63.552,62.803 M65.524,67.47c2.572,0,4.665-2.093,4.665-4.667
			s-2.093-4.668-4.665-4.668c-2.574,0-4.667,2.094-4.667,4.668S62.951,67.47,65.524,67.47"/>
	</g>
</g>
</svg>
