<?xml version="1.0" encoding="utf-8"?>
<!-- Generator: Adobe Illustrator 21.1.0, SVG Export Plug-In . SVG Version: 6.00 Build 0)  -->
<svg version="1.1" id="Layer_1" xmlns="http://www.w3.org/2000/svg" xmlns:xlink="http://www.w3.org/1999/xlink" x="0px" y="0px"
	 viewBox="0 0 22 22" style="enable-background:new 0 0 22 22;" xml:space="preserve">
<style type="text/css">
	.st0{fill:#ED1D24;}
</style>
<path class="st0" d="M20,0.4H2C1.1,0.4,0.4,1.1,0.4,2v18c0,0.9,0.7,1.6,1.6,1.6h9.7v-8.2H9v-3.2h2.8V7.8c0-2.7,1.7-4.2,4.1-4.2
	c1.2,0,2.2,0.1,2.5,0.1v2.9l-1.7,0c-1.3,0-1.6,0.6-1.6,1.6v2h3.2l-0.4,3.2H15v8.2h5c0.9,0,1.6-0.7,1.6-1.6V2
	C21.6,1.1,20.9,0.4,20,0.4z"/>
</svg>
