<?xml version="1.0" encoding="iso-8859-1"?>
<!-- Generator: Adobe Illustrator 21.1.0, SVG Export Plug-In . SVG Version: 6.00 Build 0)  -->
<svg version="1.1" id="Layer_1" xmlns="http://www.w3.org/2000/svg" xmlns:xlink="http://www.w3.org/1999/xlink" x="0px" y="0px"
	 viewBox="0 0 119 87" style="enable-background:new 0 0 119 87;" xml:space="preserve">
<g id="Branding_x2F_Handshake-icon">
	<g id="Page-1" transform="translate(0.304688, 0.169803)">
		<g id="Group-3" transform="translate(0.000000, 5.395861)">
			<path id="Fill-1" style="fill:#ED1D24;" d="M86.223,44.289l7.949-7.268L74.446,17.295l-3.416,3.416
				c-0.35,0.35-0.816,0.543-1.311,0.543h-11.41L45.745,33.818c-0.611,0.611-0.947,1.423-0.947,2.287
				c0,0.864,0.336,1.676,0.947,2.287c0.611,0.611,1.423,0.947,2.287,0.947s1.676-0.336,2.287-0.947l8.45-8.45
				c0.35-0.35,0.819-0.543,1.319-0.543l10.131,0.111l0.029-0.003c0.073-0.008,0.146-0.013,0.219-0.013
				c0.437,0,0.852,0.15,1.184,0.427v0.029l0.162,0.12L86.223,44.289z M34.208,48.451c-2.068,0-3.75,1.682-3.75,3.75
				s1.682,3.75,3.75,3.75c2.068,0,3.75-1.682,3.75-3.75C37.958,50.133,36.276,48.451,34.208,48.451z M42.159,56.373
				c-2.068,0-3.75,1.682-3.75,3.75c0,2.068,1.682,3.75,3.75,3.75c0.91,0,1.791-0.335,2.479-0.943l0.015-0.013l0.013-0.014
				c0.085-0.089,0.171-0.175,0.26-0.259l0.026-0.027c0.617-0.69,0.957-1.576,0.957-2.494C45.909,58.056,44.227,56.373,42.159,56.373
				z M50.052,64.306c-0.911,0-1.791,0.335-2.479,0.943l-0.014,0.013l-0.013,0.014c-0.085,0.089-0.172,0.175-0.26,0.259l-0.014,0.013
				l-0.013,0.014c-0.617,0.69-0.957,1.576-0.957,2.494c0,2.068,1.682,3.75,3.75,3.75c0.98,0,1.909-0.379,2.614-1.066l0.014-0.013
				l0.028-0.031l0.019-0.016c0.699-0.719,1.076-1.646,1.076-2.624C53.802,65.988,52.12,64.306,50.052,64.306z M42.159,52.665
				c4.113,0,7.459,3.346,7.459,7.459v0.462l0.461,0.012c4.098,0.015,7.432,3.361,7.432,7.458c0,1.215-0.301,2.423-0.872,3.494
				l-0.162,0.303l3.078,3.078c0.54,0.54,1.258,0.838,2.022,0.838c0.764,0,1.482-0.298,2.022-0.838
				c0.54-0.54,0.838-1.258,0.838-2.022c0-0.763-0.298-1.482-0.837-2.022l-2.433-2.433c-0.35-0.35-0.543-0.816-0.543-1.311
				c0-0.495,0.193-0.961,0.543-1.311c0.35-0.35,0.816-0.543,1.311-0.543c0.495,0,0.961,0.193,1.311,0.543l2.341,2.34
				c0.564,0.564,1.315,0.875,2.115,0.875c0.8,0,1.551-0.311,2.115-0.875c0.576-0.576,0.886-1.342,0.875-2.156
				c-0.011-0.814-0.343-1.571-0.934-2.131l-5.048-4.779c-0.743-0.703-0.775-1.879-0.072-2.622c0.354-0.374,0.832-0.58,1.347-0.58
				c0.476,0,0.929,0.18,1.275,0.508l4.637,4.389c0.673,0.637,1.551,0.988,2.472,0.988c0.045,0,0.09-0.001,0.136-0.002
				c0.973-0.034,1.872-0.448,2.531-1.166c1.311-1.428,1.264-3.621-0.107-4.991l-4.83-4.83c-0.35-0.35-0.543-0.816-0.543-1.311
				c0-0.495,0.193-0.961,0.543-1.311c0.351-0.35,0.816-0.543,1.312-0.543c0.495,0,0.961,0.193,1.311,0.543l4.815,4.816
				c0.643,0.642,1.497,0.995,2.404,0.995c0.908,0,1.762-0.354,2.405-0.995c0.646-0.646,0.999-1.505,0.996-2.416
				c-0.003-0.912-0.362-1.768-1.012-2.409L69.717,33.214l-8.878-0.097l-7.898,7.898c-1.311,1.311-3.055,2.033-4.91,2.033
				c-1.855,0-3.599-0.722-4.91-2.033c-1.311-1.311-2.033-3.055-2.033-4.91c0-1.855,0.722-3.598,2.033-4.91l9.94-9.94h-4.119
				c-0.495,0-0.961-0.193-1.311-0.543l-3.896-3.896L22.588,37.964l7.815,7.815l0.303-0.162c1.072-0.572,2.282-0.875,3.5-0.875
				c4.113,0,7.459,3.346,7.459,7.459v0.463l0.494,0.001H42.159z M61.578,79.477c-1.755,0-3.404-0.683-4.645-1.924l-3.076-3.076
				l-0.303,0.162c-1.072,0.573-2.283,0.876-3.502,0.876c-4.113,0-7.459-3.346-7.459-7.459v-0.462l-0.462-0.012
				c-4.098-0.015-7.431-3.361-7.431-7.458V59.66l-0.494-0.001c-4.111,0-7.458-3.346-7.458-7.459c0-1.216,0.301-2.424,0.872-3.495
				l0.162-0.303L19.72,40.34l-0.278,0.102c-0.577,0.213-1.173,0.321-1.77,0.321c-1.365,0-2.648-0.53-3.61-1.493L0.542,25.75
				c-0.723-0.723-0.723-1.9,0-2.623L22.774,0.895c0.351-0.35,0.817-0.543,1.312-0.543c0.495,0,0.961,0.193,1.311,0.543
				c0.723,0.723,0.723,1.9,0,2.623L4.476,24.439l12.208,12.208c0.356,0.356,0.771,0.409,0.988,0.409
				c0.203,0,0.597-0.048,0.947-0.372l0.027-0.027l0.018-0.02L42.12,13.186c0.356-0.356,0.409-0.772,0.409-0.988
				s-0.053-0.631-0.409-0.987l-7.758-7.758c-0.723-0.723-0.723-1.9,0-2.623c0.35-0.35,0.816-0.543,1.311-0.543
				c0.495,0,0.961,0.193,1.311,0.543l7.758,7.758c0.964,0.964,1.495,2.247,1.495,3.61c0,0.458-0.062,0.915-0.183,1.359l-0.071,0.26
				l3.728,3.728H68.95l3.053-3.053l-0.122-0.288c-0.82-1.931-0.395-4.133,1.083-5.611l7.973-7.973
				c0.351-0.35,0.817-0.543,1.312-0.543c0.495,0,0.961,0.193,1.311,0.543c0.723,0.723,0.723,1.899,0,2.623l-7.973,7.974
				c-0.264,0.263-0.409,0.614-0.409,0.988c0,0.374,0.145,0.724,0.409,0.988l23.461,23.46c0.263,0.263,0.614,0.409,0.987,0.409
				c0.374,0,0.724-0.145,0.988-0.409l12.208-12.208L92.583,3.796c-0.723-0.723-0.723-1.9,0-2.623c0.35-0.35,0.816-0.543,1.311-0.543
				c0.496,0,0.961,0.193,1.312,0.543l21.959,21.96c0.35,0.35,0.543,0.816,0.543,1.311c0,0.495-0.193,0.961-0.543,1.311l-13.52,13.52
				c-0.963,0.963-2.245,1.492-3.61,1.492c-1.049,0-2.058-0.318-2.92-0.921l-0.304-0.212l-8.136,7.439l0.158,0.314
				c0.5,0.99,0.755,2.059,0.759,3.178c0.006,1.908-0.733,3.702-2.082,5.051c-1.289,1.289-2.999,2.027-4.817,2.079l-0.452,0.013
				l0.001,0.452c0.006,1.841-0.681,3.606-1.933,4.971c-1.285,1.401-3.036,2.237-4.931,2.354l-0.435,0.027v0.436
				c0.025,1.843-0.672,3.558-1.961,4.848c-1.175,1.175-2.738,1.868-4.402,1.951l-0.422,0.021l-0.017,0.423
				c-0.068,1.646-0.75,3.197-1.918,4.365C64.982,78.794,63.333,79.477,61.578,79.477z"/>
		</g>
		<path id="Fill-4" style="fill:#ED1D24;" d="M101.103,32.756c-1.02,0-1.85-0.83-1.85-1.85c0-1.02,0.83-1.85,1.85-1.85
			c1.02,0,1.85,0.83,1.85,1.85C102.953,31.927,102.123,32.756,101.103,32.756"/>
		<path id="Fill-6" style="fill:#ED1D24;" d="M16.368,32.988c-1.02,0-1.85-0.83-1.85-1.85s0.83-1.85,1.85-1.85
			c1.02,0,1.85,0.83,1.85,1.85S17.388,32.988,16.368,32.988"/>
		<path id="Fill-8" style="fill:#ED1D24;" d="M29.905,4.117c-1.02,0-1.85-0.83-1.85-1.85s0.83-1.85,1.85-1.85s1.85,0.83,1.85,1.85
			S30.925,4.117,29.905,4.117"/>
		<g id="Group-12" transform="translate(85.733185, 0.066501)">
			<path id="Fill-10" style="fill:#ED1D24;" d="M2.028,3.865c-1.02,0-1.85-0.83-1.85-1.85s0.83-1.85,1.85-1.85
				c1.02,0,1.85,0.83,1.85,1.85S3.048,3.865,2.028,3.865"/>
		</g>
	</g>
</g>
</svg>
