<svg viewBox="0 0 264 264" xmlns="http://www.w3.org/2000/svg">
  <path d="M244.464 0C255.288 0 264 8.44 264 18.989v226.022c0 10.55-8.712 18.989-19.536 18.989H19.536C8.712 264 0 255.297 0 245.011V18.989C0 8.439 8.712 0 19.536 0h224.928zm-72.587 44H92.121C65.035 44 43 66.037 43 93.122v79.756C43 199.965 65.035 222 92.12 222h79.757C198.965 222 221 199.963 221 172.878V93.122C221.001 66.037 198.965 44 171.877 44zm33.331 128.878c0 18.378-14.952 33.329-33.33 33.329H92.121c-18.377.001-33.328-14.95-33.328-33.329V93.122c0-18.377 14.95-33.329 33.328-33.329h79.756c18.378 0 33.33 14.952 33.33 33.329v79.756h.001zM132 87c-25.365 0-46 20.636-46 46.001C86 158.365 106.635 179 132 179s46-20.635 46-45.999C178 107.636 157.365 87 132 87zm0 76.16c-16.63 0-30.16-13.53-30.16-30.16 0-16.631 13.529-30.162 30.16-30.162s30.16 13.53 30.16 30.162c0 16.63-13.53 30.16-30.16 30.16zM179.5 74c-3.021 0-5.99 1.223-8.123 3.366A11.555 11.555 0 0 0 168 85.5c0 3.022 1.234 5.99 3.377 8.134A11.588 11.588 0 0 0 179.5 97c3.032 0 5.99-1.234 8.134-3.366A11.586 11.586 0 0 0 191 85.5c0-3.032-1.223-6-3.366-8.134C185.5 75.223 182.532 74 179.5 74z" fill="#38B44A" fill-rule="evenodd"/>
</svg>