<?xml version="1.0" encoding="utf-8"?>
<!-- Generator: Adobe Illustrator 21.1.0, SVG Export Plug-In . SVG Version: 6.00 Build 0)  -->
<svg version="1.1" id="Layer_1" xmlns="http://www.w3.org/2000/svg" xmlns:xlink="http://www.w3.org/1999/xlink" x="0px" y="0px"
	 viewBox="0 0 22 22" style="enable-background:new 0 0 22 22;" xml:space="preserve">
<style type="text/css">
	.st0{fill:#ED1D24;}
</style>
<path class="st0" d="M20,0.4H2c-0.9,0-1.6,0.7-1.6,1.5v18.2c0,0.8,0.7,1.5,1.6,1.5H20c0.9,0,1.6-0.7,1.6-1.5V1.9
	C21.6,1.1,20.9,0.4,20,0.4z M6.8,18.2H3.6V8.6h3.2V18.2z M5.2,7.3L5.2,7.3c-1.1,0-1.8-0.7-1.8-1.7C3.4,4.7,4.1,4,5.2,4
	C6.3,4,7,4.7,7,5.6C7,6.5,6.3,7.3,5.2,7.3z M18.4,18.2h-3.2V13c0-1.3-0.5-2.2-1.6-2.2c-0.9,0-1.4,0.6-1.6,1.2
	c-0.1,0.2-0.1,0.5-0.1,0.8v5.4l-3.2,0c0,0,0-8.7,0-9.6h3.2v1.4c0.4-0.7,1.2-1.6,2.9-1.6c2.1,0,3.7,1.4,3.7,4.3V18.2z"/>
</svg>
