<?xml version="1.0" encoding="iso-8859-1"?>
<!-- Generator: Adobe Illustrator 21.1.0, SVG Export Plug-In . SVG Version: 6.00 Build 0)  -->
<svg version="1.1" id="Layer_1" xmlns="http://www.w3.org/2000/svg" xmlns:xlink="http://www.w3.org/1999/xlink" x="0px" y="0px"
	 viewBox="0 0 89 93" style="enable-background:new 0 0 89 93;" xml:space="preserve">
<g id="Branding_x2F_Magnet-icon">
	<g id="Page-1" transform="translate(6.000000, 7.500000)">
		<path id="Fill-1" style="fill:#ED1D24;" d="M64.287,38.886c0.443,0,0.842-0.179,1.132-0.469l4.525-4.526
			c0.291-0.29,0.469-0.69,0.469-1.132c0-0.884-0.715-1.6-1.599-1.6c-0.443,0-0.844,0.18-1.132,0.469l-4.527,4.526
			c-0.288,0.29-0.469,0.689-0.469,1.131C62.686,38.169,63.403,38.886,64.287,38.886"/>
		<g id="Group-5" transform="translate(67.000000, 39.819100)">
			<path id="Fill-3" style="fill:#ED1D24;" d="M9.346,0.861C9.034,0.549,8.624,0.393,8.214,0.393h-6.4
				c-0.41,0-0.821,0.156-1.133,0.468c-0.623,0.626-0.623,1.639,0,2.262c0.312,0.314,0.723,0.468,1.133,0.468h6.398
				c0.41,0.003,0.82-0.154,1.134-0.468C9.97,2.5,9.97,1.487,9.346,0.861"/>
		</g>
		<path id="Fill-6" style="fill:#ED1D24;" d="M60.893,33.891c0.312-0.312,0.469-0.723,0.469-1.132v-6.4
			c0-0.409-0.157-0.82-0.469-1.132c-0.626-0.624-1.639-0.624-2.262,0c-0.314,0.313-0.469,0.723-0.469,1.133v6.398
			c0,0.41,0.155,0.82,0.469,1.133C59.254,34.515,60.267,34.515,60.893,33.891"/>
		<path id="Fill-8" style="fill:#ED1D24;" d="M40.53,15.128c0.44,0,0.841-0.18,1.13-0.469l4.526-4.526
			c0.289-0.289,0.469-0.69,0.469-1.131c0-0.884-0.717-1.602-1.601-1.602c-0.441,0-0.841,0.18-1.132,0.47l-4.524,4.526
			c-0.291,0.289-0.469,0.69-0.469,1.131C38.929,14.411,39.646,15.128,40.53,15.128"/>
		<path id="Fill-10" style="fill:#ED1D24;" d="M43.924,16.922c-0.626,0.625-0.626,1.639,0,2.264
			c0.312,0.311,0.722,0.467,1.132,0.467h6.398c0.41,0.001,0.821-0.156,1.133-0.467c0.626-0.625,0.626-1.639,0-2.264
			c-0.312-0.312-0.723-0.469-1.13-0.469h-6.4C44.646,16.453,44.236,16.61,43.924,16.922"/>
		<g id="Group-14" transform="translate(34.000000, 0.819100)">
			<path id="Fill-12" style="fill:#ED1D24;" d="M3.135,9.314c0.312-0.312,0.469-0.723,0.469-1.132v-6.4
				c0-0.41-0.157-0.82-0.469-1.132c-0.625-0.625-1.638-0.625-2.264,0C0.559,0.962,0.402,1.373,0.402,1.782v6.399
				c0,0.41,0.157,0.821,0.469,1.133C1.497,9.939,2.51,9.939,3.135,9.314"/>
		</g>
		<g id="Group-17" transform="translate(0.000000, 9.819100)">
			<path id="Fill-15" style="fill:#ED1D24;" d="M60.33,39.352l-7.921-7.922l2.264-2.262l7.922,7.921L60.33,39.352z M55.806,43.878
				l-7.922-7.921l2.262-2.262l7.922,7.919L55.806,43.878z M41.447,58.238c-2.141,2.139-4.635,3.795-7.411,4.921
				c-2.684,1.087-5.52,1.64-8.432,1.64s-5.749-0.553-8.433-1.64c-2.778-1.126-5.27-2.782-7.41-4.921
				c-2.138-2.141-3.796-4.633-4.921-7.411c-1.088-2.682-1.641-5.521-1.641-8.43c0-2.912,0.553-5.748,1.641-8.435
				c1.125-2.776,2.783-5.269,4.921-7.408l12.096-12.097l7.922,7.92L17.682,34.473c-4.374,4.374-4.374,11.469,0,15.843
				c4.375,4.375,11.469,4.375,15.843,0l12.094-12.097l7.921,7.922L41.447,58.238z M26.384,9.93l7.922,7.922l-2.265,2.264
				l-7.921-7.922L26.384,9.93z M30.911,5.405l7.919,7.922l-2.262,2.261l-7.922-7.92L30.911,5.405z M65.12,35.087l-0.263-0.262
				l-9.584-9.582l-0.6-0.602l-23.412,23.41c-3.121,3.123-8.196,3.123-11.316,0c-3.118-3.118-3.118-8.195,0-11.313l12.096-12.097
				v0.001l2.265-2.263v-0.002l9.051-9.05l-0.38-0.38L31.844,1.814l-0.933-0.935L7.498,24.29c-9.998,10-9.998,26.211,0,36.209
				c9.999,10.001,26.212,10.001,36.211,0l23.41-23.41l-0.71-0.713L65.12,35.087z"/>
		</g>
	</g>
</g>
</svg>
