<?xml version="1.0" encoding="utf-8"?>
<!-- Generator: Adobe Illustrator 21.1.0, SVG Export Plug-In . SVG Version: 6.00 Build 0)  -->
<svg version="1.1" id="Layer_1" xmlns="http://www.w3.org/2000/svg" xmlns:xlink="http://www.w3.org/1999/xlink" x="0px" y="0px"
	 viewBox="0 0 18 16" style="enable-background:new 0 0 18 16;" xml:space="preserve">
<style type="text/css">
	.st0{fill:#ED1D24;}
</style>
<path class="st0" d="M17.6,3.4l-4.2-2.7c-0.2-0.1-0.4-0.1-0.6,0L9,3.2L5.2,0.7C5,0.5,4.8,0.5,4.6,0.7L0.4,3.4
	C0.2,3.5,0.1,3.7,0.1,3.9v10.9c0,0.2,0.1,0.4,0.3,0.6c0.2,0.1,0.4,0.1,0.6,0l3.8-2.5l3.9,2.5c0.2,0.1,0.4,0.1,0.6,0l3.8-2.5l3.8,2.5
	c0.1,0.1,0.2,0.1,0.3,0.1c0.1,0,0.2,0,0.3-0.1c0.2-0.1,0.3-0.3,0.3-0.6V3.9C17.9,3.7,17.8,3.5,17.6,3.4z M4.3,11.7l-3,1.9V4.3l3-1.9
	V11.7z M8.4,13.7l-3-1.9V2.3l3,1.9V13.7z M12.6,11.7l-3,1.9V4.3l3-1.9V11.7z M16.7,13.7l-3-1.9V2.3l3,1.9V13.7z"/>
</svg>
