<?xml version="1.0" encoding="iso-8859-1"?>
<!-- Generator: Adobe Illustrator 21.1.0, SVG Export Plug-In . SVG Version: 6.00 Build 0)  -->
<svg version="1.1" id="Layer_1" xmlns="http://www.w3.org/2000/svg" xmlns:xlink="http://www.w3.org/1999/xlink" x="0px" y="0px"
	 viewBox="0 0 88 77" style="enable-background:new 0 0 88 77;" xml:space="preserve">
<g id="Branding_x2F_Marketplace-icon">
	<g id="Page-1" transform="translate(6.000000, 7.000000)">
		<path id="Fill-1" style="fill:#ED1D24;" d="M30.449,31.075c0.301,0,0.438-0.291,0.438-0.563c0-0.276-0.136-0.572-0.438-0.572
			h-0.937v1.135H30.449z M30.398,34.408c0.29,0,0.677-0.083,0.677-0.802v-0.167c0-0.705-0.325-0.802-0.677-0.802h-0.886v1.771
			H30.398z M28.45,36.136c-0.568,0-0.864-0.325-0.864-0.645v-6.624c0-0.385,0.355-0.656,0.864-0.656h2.134
			c1.465,0,2.238,0.695,2.238,2.009c0,0.732-0.244,1.293-0.695,1.617c0.472,0.245,0.882,0.681,0.882,1.685v0.219
			c0,1.544-0.799,2.394-2.249,2.394H28.45z M44.101,36.136c-0.57,0-0.968-0.27-0.968-0.656v-2.613l-2.175-3.638
			c-0.044-0.086-0.044-0.154-0.044-0.195c0-0.502,0.746-0.822,1.259-0.822c0.355,0,0.488,0.18,0.603,0.381L44.1,31.02l1.311-2.425
			c0.121-0.229,0.269-0.384,0.606-0.384c0.514,0,1.26,0.32,1.26,0.822c0,0.041,0,0.111-0.039,0.185l-2.15,3.582l-0.019,2.679
			C45.069,35.866,44.67,36.136,44.101,36.136z M37.083,36.199c-1.793,0-2.78-0.928-2.78-2.614v-4.728
			c0-0.392,0.38-0.645,0.968-0.645c0.483,0,0.969,0.199,0.969,0.645v4.728c0,0.596,0.276,0.885,0.844,0.885
			c0.568,0,0.844-0.29,0.844-0.885v-4.728c0-0.392,0.38-0.645,0.968-0.645c0.482,0,0.968,0.199,0.968,0.645v4.728
			C39.862,35.271,38.875,36.199,37.083,36.199z M26.291,25.814c-2.083,0-3.777,1.695-3.777,3.778v5.007
			c0,2.083,1.694,3.778,3.777,3.778h22.561c2.083,0,3.777-1.695,3.777-3.778v-5.007c0-2.083-1.694-3.778-3.777-3.778H26.291z
			 M26.291,40.775c-3.405,0-6.175-2.771-6.175-6.176v-5.007c0-3.405,2.77-6.176,6.175-6.176h22.561c3.404,0,6.175,2.771,6.176,6.176
			v5.007c0,3.405-2.771,6.176-6.176,6.176H26.291z M6.128,19.315c0.102,0.005,0.185,0.009,0.267,0.009
			c1.113,0,2.186-0.471,2.942-1.294l0.128-0.145l0.121-0.153l0.114-0.158l0.104-0.161L9.9,17.247l0.088-0.17l0.079-0.173l0.07-0.174
			l0.062-0.179l0.053-0.181l0.045-0.185l0.037-0.188l0.167-0.057l-0.153-0.024l0.012-0.09l0.167-0.089l-0.155-0.016l0.009-0.127
			c0.009-0.135,0.01-0.201,0.01-0.268v-1.518H2.398v1.517c0,1.998,1.492,3.701,3.471,3.962l0.076,0.01
			C6.01,19.305,6.069,19.31,6.128,19.315z M12.79,15.327c0,2.204,1.793,3.997,3.997,3.997c2.203,0,3.997-1.792,3.997-3.997v-1.518
			H12.79V15.327z M23.182,15.327c0,2.204,1.793,3.997,3.997,3.997c2.203,0,3.997-1.792,3.997-3.997v-1.518h-7.994V15.327z
			 M33.575,15.327c0,2.204,1.792,3.997,3.997,3.997c2.204,0,3.997-1.792,3.997-3.997v-1.518h-7.994V15.327z M43.967,15.327
			c0,2.204,1.793,3.997,3.997,3.997c2.204,0,3.997-1.792,3.997-3.997v-1.518h-7.993V15.327z M54.358,15.327
			c0,2.204,1.793,3.997,3.997,3.997c2.203,0,3.997-1.792,3.997-3.997v-1.518h-7.994V15.327z M64.828,16.112l0.043,0.189l0.054,0.192
			l0.062,0.186l0.071,0.183l0.08,0.181l0.088,0.173l0.095,0.167l0.102,0.16l0.109,0.156l0.115,0.147l0.122,0.143
			c0.793,0.864,1.866,1.335,2.978,1.335c0.082,0,0.167-0.004,0.252-0.009c0.1-0.007,0.185-0.016,0.273-0.027
			c0.61-0.08,1.206-0.309,1.721-0.661l0.233-0.17c0.963-0.763,1.518-1.904,1.518-3.131v-1.518h-7.994v1.518
			c0,0.067,0.002,0.134,0.005,0.199l0.015,0.198l-0.146,0.095l0.155-0.017l0.016,0.115l-0.142,0.105l0.153-0.026L64.828,16.112z
			 M63.776,43.8V19.347c-0.078-0.097-0.153-0.195-0.226-0.295c-0.028,0.038-0.138,0.181-0.138,0.181
			c-0.055,0.071-0.11,0.142-0.168,0.21c0,0-0.186,0.21-0.241,0.268L62.92,19.8c-0.062,0.065-0.128,0.128-0.195,0.19l-0.058,0.055
			c-0.088,0.081-0.176,0.157-0.266,0.23l-0.284,0.219l-0.362,0.248c-0.118,0.071-0.2,0.12-0.284,0.167
			c-0.163,0.091-0.267,0.143-0.374,0.194c0,0-0.251,0.114-0.33,0.146l-0.104,0.042c-0.089,0.034-0.322,0.115-0.322,0.115
			c-0.139,0.044-0.241,0.074-0.343,0.101l-0.079,0.016c-0.077,0.026-0.196,0.052-0.315,0.076l-0.108,0.019
			c-0.086,0.016-0.172,0.03-0.259,0.041l-0.108,0.015c-0.104,0.012-0.358,0.034-0.358,0.034c-0.161,0.009-0.287,0.013-0.413,0.013
			c-0.127,0-0.252-0.005-0.376-0.012c0,0-0.29-0.024-0.377-0.034l-0.13-0.016c-0.085-0.011-0.365-0.061-0.365-0.061
			c-0.119-0.023-0.237-0.05-0.354-0.08c-0.143-0.039-0.245-0.069-0.347-0.101l-0.344-0.123l-0.119-0.047
			c-0.078-0.031-0.329-0.145-0.329-0.145c-0.107-0.051-0.212-0.103-0.315-0.16c-0.143-0.081-0.226-0.129-0.306-0.179
			c0,0-0.235-0.153-0.301-0.199l-0.102-0.073c-0.069-0.051-0.281-0.216-0.281-0.216c-0.09-0.074-0.178-0.149-0.264-0.227
			c0,0-0.191-0.182-0.254-0.246c0,0-0.192-0.206-0.245-0.266l-0.301-0.369c-0.03-0.039-0.058-0.078-0.086-0.117
			c-0.029,0.039-0.141,0.186-0.141,0.186c-0.051,0.068-0.107,0.137-0.165,0.206c0,0-0.187,0.211-0.241,0.269l-0.084,0.09
			c-0.064,0.065-0.254,0.246-0.254,0.246c-0.086,0.079-0.174,0.154-0.264,0.228c0,0-0.213,0.167-0.282,0.216
			c0,0-0.233,0.163-0.299,0.206l-0.104,0.067c-0.08,0.05-0.162,0.097-0.244,0.143c-0.165,0.093-0.27,0.145-0.377,0.195
			c0,0-0.251,0.113-0.329,0.145l-0.118,0.047l-0.345,0.122c-0.101,0.032-0.202,0.062-0.306,0.09
			c-0.157,0.042-0.276,0.069-0.396,0.092l-0.11,0.019c-0.083,0.016-0.169,0.03-0.257,0.041l-0.128,0.017
			c-0.085,0.009-0.338,0.032-0.338,0.032c-0.161,0.009-0.287,0.013-0.413,0.013c-0.126,0-0.252-0.005-0.376-0.012
			c0,0-0.29-0.024-0.377-0.034l-0.128-0.016c-0.086-0.011-0.172-0.026-0.258-0.041l-0.107-0.019c-0.119-0.023-0.239-0.05-0.356-0.08
			c-0.143-0.039-0.244-0.069-0.346-0.101l-0.343-0.121c0,0-0.276-0.114-0.353-0.149l-0.097-0.044
			c-0.104-0.05-0.208-0.102-0.312-0.159c-0.143-0.08-0.225-0.129-0.306-0.179c0,0-0.237-0.154-0.301-0.2L44.2,20.492
			c-0.069-0.05-0.282-0.216-0.282-0.216c-0.09-0.074-0.178-0.149-0.264-0.227c0,0-0.191-0.182-0.254-0.246
			c0,0-0.194-0.207-0.245-0.267l-0.079-0.091c-0.059-0.07-0.116-0.14-0.171-0.213c0,0-0.109-0.142-0.137-0.181
			c-0.029,0.04-0.136,0.181-0.136,0.181c-0.055,0.072-0.25,0.305-0.25,0.305c-0.054,0.059-0.245,0.264-0.245,0.264
			c-0.064,0.065-0.128,0.128-0.195,0.19l-0.059,0.058c-0.086,0.078-0.174,0.154-0.265,0.227c0,0-0.211,0.166-0.28,0.216
			l-0.101,0.073l-0.304,0.201c-0.078,0.048-0.16,0.097-0.244,0.144c-0.163,0.091-0.268,0.143-0.375,0.194
			c0,0-0.251,0.114-0.329,0.146l-0.118,0.046c-0.077,0.03-0.346,0.123-0.346,0.123c-0.1,0.032-0.202,0.062-0.306,0.09
			c-0.156,0.042-0.275,0.068-0.394,0.092l-0.108,0.019c-0.086,0.016-0.172,0.03-0.259,0.041l-0.084,0.011
			c-0.129,0.016-0.215,0.023-0.302,0.03l-0.081,0.008c-0.161,0.009-0.287,0.013-0.413,0.013c-0.127,0-0.251-0.005-0.377-0.012
			c0,0-0.29-0.024-0.376-0.034l-0.104-0.013c-0.11-0.014-0.196-0.029-0.282-0.044l-0.109-0.019c-0.119-0.024-0.237-0.05-0.354-0.08
			c-0.144-0.039-0.246-0.069-0.347-0.102c0,0-0.268-0.092-0.344-0.122l-0.119-0.047c-0.077-0.031-0.329-0.145-0.329-0.145
			c-0.107-0.051-0.212-0.103-0.314-0.16c-0.144-0.081-0.227-0.13-0.308-0.18l-0.3-0.199l-0.103-0.074
			c-0.069-0.05-0.28-0.216-0.28-0.216c-0.09-0.074-0.178-0.149-0.265-0.227c0,0-0.191-0.183-0.254-0.248l-0.245-0.265l-0.079-0.092
			c-0.059-0.069-0.222-0.277-0.222-0.277c-0.029-0.038-0.058-0.077-0.086-0.116c-0.028,0.04-0.137,0.181-0.137,0.181
			c-0.055,0.072-0.111,0.142-0.169,0.211c0,0-0.186,0.211-0.241,0.269l-0.083,0.089c-0.064,0.065-0.255,0.248-0.255,0.248
			c-0.086,0.078-0.174,0.153-0.263,0.227l-0.077,0.06c-0.068,0.054-0.135,0.107-0.206,0.156c0,0-0.232,0.162-0.298,0.206
			l-0.104,0.067c-0.081,0.05-0.164,0.099-0.247,0.144c-0.163,0.092-0.268,0.144-0.374,0.195c0,0-0.251,0.113-0.329,0.146
			L29.49,21.29l-0.361,0.128c-0.101,0.032-0.203,0.062-0.306,0.09c-0.158,0.042-0.276,0.069-0.396,0.092l-0.102,0.019
			c-0.092,0.016-0.178,0.031-0.265,0.042l-0.128,0.017c-0.085,0.009-0.339,0.032-0.339,0.032c-0.161,0.009-0.287,0.013-0.413,0.013
			c-0.126,0-0.251-0.005-0.377-0.012c0,0-0.29-0.024-0.376-0.034l-0.129-0.016c-0.085-0.011-0.364-0.061-0.364-0.061
			c-0.12-0.023-0.238-0.05-0.355-0.08c-0.144-0.039-0.246-0.069-0.347-0.101l-0.343-0.121l-0.449-0.193
			c-0.106-0.051-0.21-0.103-0.313-0.16c-0.145-0.082-0.227-0.129-0.307-0.179l-0.3-0.199l-0.104-0.074
			c-0.069-0.05-0.281-0.216-0.281-0.216c-0.09-0.074-0.178-0.149-0.264-0.228c0,0-0.192-0.182-0.254-0.246
			c0,0-0.192-0.206-0.244-0.265l-0.081-0.093c-0.058-0.069-0.114-0.14-0.169-0.211l0.072-0.16l-0.124,0.094
			c-0.029-0.038-0.058-0.077-0.086-0.116c-0.028,0.039-0.136,0.181-0.136,0.181c-0.055,0.072-0.112,0.143-0.171,0.213
			c0,0-0.186,0.211-0.241,0.269l-0.083,0.088c-0.065,0.065-0.255,0.248-0.255,0.248c-0.086,0.078-0.174,0.153-0.264,0.227
			c0,0-0.212,0.166-0.28,0.216c0,0-0.234,0.164-0.301,0.207l-0.103,0.066c-0.081,0.05-0.164,0.098-0.246,0.145
			c-0.164,0.091-0.268,0.143-0.375,0.194c0,0-0.251,0.114-0.33,0.146l-0.35,0.132l-0.111,0.037c-0.101,0.032-0.204,0.062-0.308,0.09
			c-0.156,0.042-0.276,0.069-0.395,0.092l-0.108,0.019c-0.086,0.016-0.171,0.03-0.258,0.041l-0.129,0.017
			c-0.084,0.009-0.338,0.032-0.338,0.032c-0.162,0.009-0.287,0.013-0.413,0.013c-0.126,0-0.251-0.005-0.377-0.012
			c0,0-0.29-0.024-0.376-0.034l-0.11-0.013c-0.104-0.014-0.19-0.029-0.276-0.044l-0.082-0.013c-0.146-0.03-0.264-0.056-0.382-0.086
			c-0.143-0.039-0.244-0.069-0.346-0.101l-0.09-0.029c-0.102-0.036-0.36-0.134-0.36-0.134c-0.093-0.038-0.323-0.141-0.323-0.141
			c-0.127-0.062-0.232-0.114-0.335-0.171c-0.143-0.081-0.226-0.13-0.307-0.181l-0.076-0.047l-0.31-0.21
			c-0.086-0.065-0.294-0.227-0.294-0.227c-0.093-0.076-0.181-0.152-0.267-0.23l-0.256-0.249c0,0-0.191-0.203-0.244-0.264
			l-0.067-0.076c-0.071-0.084-0.232-0.289-0.232-0.289c-0.03-0.04-0.058-0.079-0.086-0.118c-0.072,0.1-0.148,0.199-0.227,0.296V43.8
			H63.776z M44.288,55.677l-0.656-2.768h-12.12l-0.656,2.768H44.288z M50.324,60.096v-1.148c0-0.481-0.392-0.873-0.874-0.873H25.692
			c-0.482,0-0.873,0.392-0.873,0.873v1.148H50.324z M24.258,62.495c-1.012,0-1.837-0.824-1.837-1.837v-1.711
			c0-1.804,1.468-3.271,3.272-3.271h2.699l0.656-2.769H9.634c-2.822,0-5.117-2.295-5.117-5.116v-1.246
			c0-0.661,0.538-1.199,1.199-1.199s1.199,0.538,1.199,1.199v1.246c0,1.499,1.219,2.718,2.719,2.718h55.875
			c1.499,0,2.718-1.219,2.718-2.718V21.7c-0.064-0.005-0.128-0.011-0.191-0.017l-0.355-0.051l-0.134-0.023
			c-0.073-0.014-0.345-0.076-0.345-0.076c-0.084-0.021-0.336-0.093-0.336-0.093c-0.111-0.034-0.219-0.072-0.328-0.111l-0.364-0.149
			v23.82c0,0.66-0.538,1.199-1.199,1.199H10.167c-0.661,0-1.199-0.539-1.199-1.199v-23.82c0,0-0.21,0.089-0.294,0.121
			c-0.178,0.068-0.287,0.105-0.397,0.139c0,0-0.253,0.072-0.336,0.093l-0.348,0.076l-0.356,0.056l-0.131,0.017
			c-0.063,0.006-0.127,0.012-0.191,0.017v17.406c0,0.66-0.538,1.199-1.199,1.199s-1.199-0.539-1.199-1.199V21.439
			C1.852,20.617,0,18.121,0,15.327v-2.724l0.004-0.075c0.006-0.082,0.013-0.125,0.023-0.171c0.013-0.056,0.023-0.093,0.036-0.13
			L3.622,2.004C4.038,0.805,5.171,0,6.44,0h47.388c0.66,0,1.199,0.538,1.199,1.199c0,0.662-0.539,1.2-1.199,1.2H6.44
			c-0.249,0-0.472,0.157-0.554,0.393L2.886,11.41h69.371l-3.001-8.619c-0.082-0.235-0.304-0.393-0.554-0.393h-7.572
			c-0.661,0-1.199-0.538-1.199-1.199S60.47,0,61.131,0h7.572c1.268,0,2.401,0.805,2.818,2.003l3.555,10.212
			c0.016,0.049,0.026,0.086,0.035,0.125c0.014,0.065,0.022,0.108,0.026,0.153c0.004,0.055,0.005,0.086,0.005,0.117v2.717
			c0,2.626-1.579,4.956-4.023,5.935c-0.108,0.044-0.212,0.083-0.315,0.118l-0.178,0.059v26.352c0,2.821-2.295,5.116-5.116,5.116
			H46.096l0.656,2.769h2.699c1.804,0,3.272,1.467,3.272,3.271v1.711c0,1.013-0.824,1.837-1.836,1.837H24.258z"/>
	</g>
</g>
</svg>
