<?xml version="1.0" encoding="utf-8"?>
<!-- Generator: Adobe Illustrator 21.1.0, SVG Export Plug-In . SVG Version: 6.00 Build 0)  -->
<svg version="1.1" id="Layer_1" xmlns="http://www.w3.org/2000/svg" xmlns:xlink="http://www.w3.org/1999/xlink" x="0px" y="0px"
	 viewBox="0 0 18 20" style="enable-background:new 0 0 18 20;" xml:space="preserve">
<style type="text/css">
	.st0{fill:#ED1D24;}
</style>
<g>
	<path class="st0" d="M12.4,12.9H5.6c-2.8,0-5.1,2.3-5.1,5.1v1.7h17.1V18C17.6,15.2,15.3,12.9,12.4,12.9z M5,18.6H1.6V18
		c0-2,1.5-3.7,3.4-4V18.6z M11.9,18.6h-1.1v-1.1H9.6v1.1H8.4v-1.1H7.3v1.1H6.1v-2.3h5.7V18.6z M11.9,15.2H6.1V14h5.7V15.2z
		 M16.4,18.6H13v-4.5c1.9,0.3,3.4,1.9,3.4,4V18.6z"/>
	<path class="st0" d="M4.1,6.8c0,2.7,2.2,4.9,4.9,4.9c2.7,0,4.9-2.2,4.9-4.9v-1h1.1V4.7h-1.1V4.1c0-2.1-1.7-3.8-3.8-3.8H7.9
		C5.8,0.3,4.1,2,4.1,4.1v0.6H2.9v1.1h1.1V6.8z M10.7,1.5c1.2,0.3,2.1,1.3,2.1,2.6v0.6h-2.1V1.5z M8.4,1.4h1.1v3.3H8.4V1.4z M5.2,4.1
		c0-1.3,0.9-2.3,2.1-2.6v3.2H5.2V4.1z M5.2,5.9h7.6v1c0,2.1-1.7,3.8-3.8,3.8c-2.1,0-3.8-1.7-3.8-3.8V5.9z"/>
</g>
</svg>
