<?xml version="1.0" encoding="iso-8859-1"?>
<!-- Generator: Adobe Illustrator 21.1.0, SVG Export Plug-In . SVG Version: 6.00 Build 0)  -->
<svg version="1.1" id="Layer_1" xmlns="http://www.w3.org/2000/svg" xmlns:xlink="http://www.w3.org/1999/xlink" x="0px" y="0px"
	 viewBox="0 0 88 77" style="enable-background:new 0 0 88 77;" xml:space="preserve">
<g id="Branding_x2F_onsite-webcast">
	<g id="Page-1" transform="translate(4.500000, 3.000000)">
		<path id="Fill-1" style="fill:#ED1D24;" d="M47.414,15.198c0.501,0,0.907-0.405,0.907-0.907s-0.406-0.908-0.907-0.908h-0.009
			c-0.502,0-0.904,0.406-0.904,0.908S46.913,15.198,47.414,15.198"/>
		<path id="Fill-3" style="fill:#ED1D24;" d="M7.127,8.08c-0.451,0-0.819-0.367-0.819-0.819c0-0.451,0.368-0.817,0.819-0.817
			s0.817,0.367,0.817,0.817C7.945,7.713,7.578,8.08,7.127,8.08 M10.042,7.261c0-1.607-1.307-2.915-2.915-2.915
			S4.213,5.655,4.213,7.261c0,1.608,1.307,2.916,2.915,2.916S10.042,8.869,10.042,7.261"/>
		<g id="Group-7" transform="translate(0.000000, 0.130795)">
			<path id="Fill-5" style="fill:#ED1D24;" d="M73.596,57.877H21.211c-1.639,0-2.972-1.334-2.972-2.972V19.98
				c0-1.638,1.333-2.972,2.972-2.972h21.404v2.064H21.211c-0.502,0-0.907,0.408-0.907,0.908v34.924c0,0.501,0.405,0.908,0.907,0.908
				h52.385c0.501,0,0.907-0.408,0.907-0.908V19.98c0-0.501-0.406-0.908-0.907-0.908H52.191v-2.064h21.405
				c1.639,0,2.972,1.334,2.972,2.972v34.924h0.001C76.57,56.543,75.236,57.877,73.596,57.877z M60.015,65.514
				c0.57,0,1.033,0.463,1.033,1.032c0,0.57-0.463,1.032-1.033,1.032H34.793c-0.57,0-1.032-0.462-1.032-1.032
				c0-0.569,0.462-1.032,1.032-1.032h1.939h0.002h0.002h15.518c0.501,0,0.907-0.408,0.907-0.908c0-0.502-0.406-0.907-0.907-0.907
				h-14.45l0.666-4.006h17.864l0.669,4.006h-0.87c-0.501,0-0.907,0.405-0.907,0.907c0,0.501,0.406,0.908,0.907,0.908h1.937h0.002
				h0.002H60.015z M16.423,19.98v2.249l-0.501,0.501L11.992,18.8c-0.368-0.368-0.966-0.368-1.335,0
				c-0.368,0.368-0.368,0.966,0,1.335l2.086,2.085l-8.16,8.16V16.753L5.327,18c0.381,0.639,1.054,1.022,1.8,1.022
				c0.745,0,1.418-0.383,1.8-1.022c0,0,4.536-7.604,4.546-7.624c0.511-0.997,0.78-2.119,0.78-3.245c0-0.662-0.091-1.309-0.263-1.929
				l13.278,0.007l-8.245,8.246l-2.952-2.953c-0.369-0.368-0.966-0.368-1.335,0c-0.368,0.369-0.368,0.966,0,1.335l4.029,4.029h0.001
				C17.364,16.703,16.423,18.233,16.423,19.98z M16.423,29.933l-3.428,3.427l-4.362-4.363l5.444-5.442l2.346,2.345V29.933z
				 M16.423,36.787l-2.094-2.094l2.094-2.092V36.787z M5.087,37.588c-0.278,0-0.504-0.226-0.504-0.504V33.05L7.3,30.332l7.261,7.262
				L5.087,37.588z M2.632,9.392c-0.36-0.714-0.54-1.484-0.535-2.291c0.016-2.718,2.24-4.962,4.958-4.999
				c1.359-0.017,2.637,0.496,3.603,1.448c0.333,0.328,0.612,0.696,0.839,1.089c0.009,0.019,0.02,0.037,0.031,0.056
				c0.41,0.737,0.629,1.57,0.629,2.438c0,0.796-0.181,1.557-0.535,2.261l-4.494,7.534L2.632,9.392z M34.826,11.614l-3.58,3.579
				h2.669l9.974-9.974l1.898,0.001c0.278,0,0.505,0.227,0.505,0.504v3.781c-2.106,0.502-3.677,2.398-3.677,4.655v1.033H21.211
				c-0.146,0-0.29,0.008-0.431,0.02l-0.423-0.423l8.822-8.823L34.826,11.614z M41.221,5.217l-5.062,5.062l-5.067-5.067L41.221,5.217
				z M50.377,14.159v4.913h-5.946v-2.964c0-0.002,0.001-0.006,0.001-0.008c0-0.002-0.001-0.005-0.001-0.007V14.16
				c0-1.639,1.334-2.974,2.974-2.974C49.043,11.187,50.377,12.521,50.377,14.159z M40.551,52.228c0-0.534,0.208-1.038,0.586-1.416
				l1.478-1.477v4.661h-2.064V52.228z M35.701,47.519L37.92,45.3c0.14,0.106,0.29,0.201,0.45,0.28l3.139,1.57
				c0.16,0.079,0.304,0.178,0.434,0.293c-0.01,0.009-0.02,0.017-0.031,0.027l-2.057,2.057c-0.721,0.722-1.118,1.68-1.118,2.7v1.768
				h-3.035V47.519z M32.696,43.762c0.06-0.234,0.094-0.478,0.094-0.728v-1.108c0.632,0.198,1.306,0.304,2.003,0.304
				c0.697,0,1.369-0.107,2.003-0.304v1.108c0,0.25,0.033,0.494,0.094,0.728l-2.097,2.098L32.696,43.762z M32.796,33.861
				c0.397,0.374,0.963,0.831,1.684,1.225c0.853,0.466,2.03,0.896,3.469,0.896c0.546,0,1.132-0.065,1.75-0.21
				c-0.14,2.584-2.287,4.643-4.905,4.643c-2.709,0-4.913-2.203-4.913-4.913v-0.187C30.603,35.148,31.676,34.762,32.796,33.861z
				 M32.79,26.772c0-1.105,0.898-2.003,2.003-2.003c1.104,0,2.003,0.898,2.003,2.003c0,0.12-0.011,0.24-0.032,0.357
				c-0.623-0.191-1.285-0.295-1.971-0.295c-0.685,0-1.345,0.103-1.969,0.295C32.804,27.011,32.79,26.893,32.79,26.772z
				 M34.793,28.649c2.709,0,4.913,2.204,4.913,4.913v0.329c-3.779,1.157-6.031-1.718-6.128-1.844
				c-0.157-0.211-0.399-0.342-0.661-0.36c-0.263-0.019-0.52,0.077-0.706,0.263c-0.866,0.866-1.714,1.284-2.328,1.486
				C29.95,30.786,32.126,28.649,34.793,28.649z M29.034,52.228v1.768h-2.065v-4.661l1.479,1.477
				C28.826,51.191,29.034,51.695,29.034,52.228z M29.731,49.529l-2.057-2.057c-0.01-0.01-0.02-0.018-0.032-0.027
				c0.129-0.115,0.275-0.213,0.434-0.293l3.139-1.57c0.161-0.079,0.311-0.175,0.451-0.28l2.219,2.219v6.477H30.85v-1.768
				C30.85,51.21,30.452,50.251,29.731,49.529z M67.02,36.534l-3.153-1.576c-0.02-0.01-0.034-0.032-0.034-0.055v-1.375
				c1.176-0.874,1.94-2.273,1.94-3.847v-1.94c0-2.64-2.148-4.789-4.788-4.789c-2.627,0-4.765,2.125-4.788,4.748v0.01
				c0,0.009-0.001,0.019-0.001,0.031v1.94c0,1.574,0.764,2.972,1.94,3.847v1.412l-3.187,1.593h-5.669v-9.762
				c0-0.502-0.405-0.908-0.907-0.908c-0.502,0-0.908,0.406-0.908,0.908v27.224h-3.035v-5.055c0-1.454-0.808-2.764-2.111-3.414
				l-3.139-1.57c-0.352-0.176-0.57-0.53-0.57-0.923v-1.996c1.756-1.215,2.91-3.243,2.91-5.536v-0.951v-0.003v-0.986
				c0-2.367-1.231-4.452-3.085-5.652c0.115-0.367,0.175-0.752,0.175-1.138c0-2.106-1.713-3.819-3.818-3.819
				c-2.105,0-3.818,1.713-3.818,3.819c0,0.391,0.059,0.772,0.174,1.138c-1.854,1.2-3.085,3.285-3.085,5.652v1.94
				c0,2.293,1.155,4.321,2.911,5.536v1.996c0,0.393-0.219,0.747-0.571,0.923l-3.139,1.57c-1.301,0.651-2.111,1.96-2.111,3.414v5.055
				h-3.035V20.889h25.347v2.003c0,0.501,0.406,0.906,0.908,0.906c0.502,0,0.907-0.405,0.907-0.906v-2.003h23.408v15.645H67.02z
				 M62.969,36.534h-3.96l0.442-0.22c0.308-0.153,0.502-0.468,0.502-0.812v-1.146c0.333,0.074,0.678,0.114,1.033,0.114
				c0.354,0,0.699-0.04,1.032-0.114v0.547C62.018,35.585,62.38,36.202,62.969,36.534z M58.099,27.033
				c0.318-1.299,1.492-2.265,2.887-2.265c1.638,0,2.972,1.334,2.972,2.974v0.044C61.555,27.695,59.254,27.275,58.099,27.033z
				 M63.958,29.603v0.079c0,1.638-1.334,2.972-2.972,2.972c-1.639,0-2.974-1.334-2.974-2.972v-0.811
				C59.31,29.135,61.568,29.519,63.958,29.603z M58.099,44.494c0.318-1.299,1.492-2.265,2.887-2.265
				c1.638,0,2.972,1.334,2.972,2.972v0.044C61.555,45.156,59.254,44.736,58.099,44.494z M60.986,50.114
				c-1.639,0-2.974-1.333-2.974-2.972v-0.811c1.298,0.262,3.556,0.648,5.946,0.732v0.078C63.958,48.781,62.624,50.114,60.986,50.114
				z M62.972,53.996h-3.965l0.444-0.221c0.308-0.154,0.502-0.468,0.502-0.812v-1.147c0.333,0.075,0.678,0.115,1.033,0.115
				c0.354,0,0.699-0.04,1.032-0.115v0.547C62.018,53.047,62.381,53.664,62.972,53.996z M63.867,52.418
				c-0.02-0.009-0.034-0.031-0.034-0.054v-1.375c1.176-0.873,1.94-2.272,1.94-3.847v-1.94c0-2.64-2.148-4.788-4.788-4.788
				c-2.627,0-4.765,2.125-4.788,4.747c0,0.003,0,0.007,0,0.01c0,0.009-0.001,0.02-0.001,0.031v1.94c0,1.575,0.764,2.974,1.94,3.847
				v1.414l-3.189,1.594h-5.667V38.351h23.408v15.645h-5.667L63.867,52.418z M73.596,15.193H52.191v-1.033
				c0-2.301-1.633-4.228-3.801-4.685V5.723c0-1.432-1.166-2.6-2.6-2.601L13.009,3.106c-0.257-0.372-0.55-0.724-0.879-1.049
				c-1.368-1.35-3.18-2.08-5.105-2.053C3.175,0.058,0.023,3.236,0,7.088c-0.007,1.141,0.263,2.278,0.78,3.288
				c0.01,0.02,1.705,2.862,1.705,2.862v23.845c0,1.434,1.167,2.601,2.6,2.601l11.338,0.006v15.214c0,2.64,2.148,4.788,4.788,4.788
				h15.42l-0.668,4.006h-1.171c-1.57,0-2.849,1.277-2.849,2.848c0,1.57,1.278,2.849,2.849,2.849h25.222
				c1.57,0,2.848-1.278,2.848-2.849c0-1.57-1.277-2.848-2.848-2.848h-1.172l-0.668-4.006h15.421c2.64,0,4.788-2.148,4.788-4.788
				V19.98C78.384,17.341,76.236,15.193,73.596,15.193z"/>
		</g>
	</g>
</g>
</svg>
