<?xml version="1.0" encoding="utf-8"?>
<!-- Generator: Adobe Illustrator 22.1.0, SVG Export Plug-In . SVG Version: 6.00 Build 0)  -->
<svg version="1.1" id="Layer_1" xmlns="http://www.w3.org/2000/svg" xmlns:xlink="http://www.w3.org/1999/xlink" x="0px" y="0px"
	 viewBox="0 0 73 73" style="enable-background:new 0 0 73 73;" xml:space="preserve">
<style type="text/css">
	.st0{fill:#ED1D24;}
</style>
<desc>Created with Sketch.</desc>
<g id="Designs">
	<g id="Desktop---About" transform="translate(-1124.000000, -1292.000000)">
		<g id="Group-9" transform="translate(994.000000, 1153.000000)">
			<g id="Group-16">
				<g id="Group-18" transform="translate(98.000000, 129.000000)">
					<g id="Branding_x2F_More-icon" transform="translate(24.000000, 0.000000)">
						<path class="st0" d="M50.9,82.5H38.1c-1.1,0-2-0.9-2-2V54.8H9.6c-0.9,0-1.6-0.7-1.6-1.6V39.8c0-0.9,0.7-1.6,1.6-1.6h26.5V12.5
							c0-1.1,0.9-2,2-2h12.8c1.1,0,2,0.9,2,2v25.7h26.5c0.9,0,1.6,0.7,1.6,1.6v13.4c0,0.9-0.7,1.6-1.6,1.6H52.9v25.7
							C52.9,81.6,52,82.5,50.9,82.5z M39.1,79.5h10.8V51.8H78V41.2H49.9V13.5H39.1v27.7H11v10.6h28.1V79.5z"/>
					</g>
				</g>
			</g>
		</g>
	</g>
</g>
</svg>
