<?xml version="1.0" encoding="iso-8859-1"?>
<!-- Generator: Adobe Illustrator 21.1.0, SVG Export Plug-In . SVG Version: 6.00 Build 0)  -->
<svg version="1.1" id="Layer_1" xmlns="http://www.w3.org/2000/svg" xmlns:xlink="http://www.w3.org/1999/xlink" x="0px" y="0px"
	 viewBox="0 0 89 93" style="enable-background:new 0 0 89 93;" xml:space="preserve">
<g id="Branding_x2F_Procure">
	<g id="Page-1" transform="translate(7.000000, 11.000000)">
		<path id="Fill-1" style="fill:#ED1D24;" d="M10.645,33.392c0.786-0.178,1.281-0.962,1.103-1.748
			c-0.171-0.791-0.95-1.29-1.739-1.121c-0.788,0.171-1.29,0.948-1.121,1.736c0.002,0.007,0.007,0.025,0.007,0.03
			c0.155,0.677,0.758,1.14,1.424,1.14C10.428,33.429,10.537,33.417,10.645,33.392 M33.006,4.567c0.074,0,0.146-0.005,0.22-0.016
			c0.005-0.002,0.025-0.005,0.03-0.007c0.798-0.127,1.343-0.876,1.214-1.674c-0.129-0.798-0.876-1.339-1.674-1.211l0.213,1.445
			l-0.215-1.445c-0.8,0.12-1.348,0.862-1.23,1.662C31.672,4.047,32.294,4.567,33.006,4.567 M28.72,5.51
			c0.143,0,0.289-0.018,0.432-0.065c0.772-0.231,1.209-1.05,0.976-1.822c-0.236-0.772-1.052-1.209-1.824-0.976l-0.021,0.007
			c-0.77,0.238-1.2,1.054-0.962,1.826C27.513,5.11,28.096,5.51,28.72,5.51 M37.383,4.178h0.023c0.807,0,1.461-0.652,1.461-1.461
			c0-0.807-0.654-1.461-1.461-1.461l-0.037,0.002c-0.807,0.009-1.457,0.675-1.443,1.482C35.936,3.54,36.585,4.178,37.383,4.178
			 M41.554,4.472c0.079,0.012,0.16,0.018,0.238,0.018c0.703,0,1.322-0.509,1.44-1.223c0.129-0.798-0.409-1.549-1.207-1.681
			L41.988,1.58c-0.8-0.118-1.547,0.435-1.665,1.232C40.206,3.612,40.754,4.354,41.554,4.472 M45.606,5.418l0.012,0.005
			c0.15,0.051,0.303,0.074,0.451,0.074c0.617,0,1.191-0.395,1.392-1.015c0.247-0.768-0.173-1.591-0.941-1.84l-0.016-0.005
			c-0.768-0.247-1.591,0.173-1.84,0.941C44.416,4.347,44.837,5.17,45.606,5.418 M64.608,30.583c-0.807-0.046-1.496,0.573-1.542,1.38
			v0.005c-0.044,0.805,0.573,1.491,1.38,1.537c0.025,0,0.053,0.002,0.081,0.002c0.77,0,1.415-0.608,1.459-1.387
			C66.032,31.316,65.413,30.629,64.608,30.583 M61.483,43.125c-0.691-0.418-1.591-0.194-2.007,0.497
			c-0.002,0.005-0.014,0.023-0.016,0.028c-0.409,0.696-0.176,1.593,0.52,2.002c0.231,0.134,0.488,0.201,0.74,0.201
			c0.499,0,0.987-0.259,1.26-0.721C62.396,44.441,62.174,43.544,61.483,43.125 M64.234,34.911c-0.786-0.173-1.565,0.326-1.743,1.112
			v0.002c-0.178,0.786,0.314,1.57,1.1,1.75c0.111,0.023,0.22,0.035,0.326,0.035c0.668,0,1.272-0.46,1.424-1.137
			c0.002-0.005,0.007-0.025,0.007-0.03C65.517,35.854,65.02,35.082,64.234,34.911 M59.166,46.806
			c-0.617-0.522-1.54-0.444-2.06,0.173c-0.002,0.005-0.014,0.018-0.018,0.023c-0.511,0.62-0.423,1.533,0.194,2.046
			c0.273,0.229,0.603,0.34,0.934,0.34c0.418,0,0.835-0.178,1.126-0.525C59.862,48.249,59.783,47.324,59.166,46.806 M63.189,39.126
			c-0.749-0.301-1.6,0.062-1.903,0.809c0,0.002-0.007,0.018-0.007,0.023c-0.298,0.747,0.069,1.588,0.818,1.887
			c0.176,0.074,0.358,0.106,0.539,0.106c0.58,0,1.133-0.351,1.362-0.922C64.301,40.279,63.938,39.428,63.189,39.126 M54.253,49.918
			c-0.005,0.005-0.012,0.009-0.016,0.014c-0.606,0.525-0.677,1.438-0.16,2.051c0.289,0.342,0.701,0.52,1.117,0.52
			c0.333,0,0.668-0.116,0.943-0.349c0.005-0.002,0.012-0.009,0.018-0.014c0.603-0.522,0.677-1.438,0.157-2.048
			C55.793,49.474,54.87,49.398,54.253,49.918 M13.565,39.958c0-0.005-0.007-0.021-0.007-0.023c-0.303-0.747-1.154-1.107-1.903-0.809
			c-0.747,0.303-1.11,1.154-0.809,1.903l0.002,0.007c0.229,0.573,0.777,0.922,1.359,0.922c0.178,0,0.363-0.035,0.539-0.104
			C13.496,41.555,13.864,40.707,13.565,39.958 M11.253,37.775c0.786-0.18,1.279-0.962,1.1-1.748
			c-0.169-0.788-0.946-1.292-1.736-1.121c-0.791,0.171-1.29,0.946-1.121,1.736c0,0.005,0.005,0.025,0.007,0.03
			c0.155,0.68,0.756,1.14,1.424,1.14C11.034,37.812,11.142,37.799,11.253,37.775 M15.385,43.65
			c-0.002-0.005-0.014-0.023-0.016-0.028c-0.416-0.691-1.318-0.918-2.009-0.499c-0.691,0.416-0.916,1.311-0.497,2.002v0.002
			c0.273,0.465,0.763,0.724,1.265,0.724c0.25,0,0.504-0.065,0.738-0.201C15.56,45.241,15.794,44.346,15.385,43.65 M17.738,46.979
			c-0.52-0.615-1.436-0.694-2.053-0.176c-0.617,0.516-0.701,1.44-0.185,2.058l0.002,0.002c0.289,0.351,0.707,0.532,1.128,0.532
			c0.326,0,0.659-0.111,0.929-0.335c0.622-0.513,0.71-1.436,0.197-2.058C17.752,46.998,17.741,46.984,17.738,46.979 M20.607,49.934
			c-0.005-0.007-0.012-0.012-0.016-0.016c-0.617-0.52-1.54-0.444-2.06,0.173c-0.518,0.61-0.446,1.526,0.157,2.048
			c0.007,0.005,0.014,0.012,0.018,0.014c0.275,0.234,0.61,0.349,0.946,0.349c0.414,0,0.825-0.178,1.114-0.52
			C21.287,51.37,21.213,50.456,20.607,49.934 M69.14,21.668c-0.999-1.887-2.636-3.385-4.601-4.254
			c0.668-0.883,1.063-1.979,1.063-3.165c0-2.897-2.356-5.255-5.25-5.255c-2.897,0-5.253,2.358-5.253,5.255
			c0,1.265,0.449,2.425,1.195,3.332c-1.806,0.89-3.304,2.319-4.24,4.088c-1.732-1.991-2.781-4.585-2.781-7.419
			c0-6.245,5.079-11.326,11.324-11.326s11.324,5.082,11.324,11.326C71.921,17.084,70.869,19.678,69.14,21.668 M58.022,14.249
			c0-1.285,1.045-2.33,2.33-2.33c1.283,0,2.328,1.045,2.328,2.33c0,1.283-1.045,2.328-2.328,2.328
			C59.067,16.577,58.022,15.532,58.022,14.249 M60.597,25.573c-2.312,0-4.462-0.698-6.256-1.891
			c0.962-2.469,3.456-4.182,6.256-4.182c2.8,0,5.294,1.713,6.256,4.182C65.059,24.875,62.907,25.573,60.597,25.573 M60.597,0.001
			c-7.856,0-14.248,6.39-14.248,14.248c0,4.462,2.065,8.452,5.285,11.067c0.062,0.058,0.127,0.111,0.199,0.157
			c2.418,1.893,5.461,3.022,8.765,3.022c3.301,0,6.346-1.128,8.765-3.022c0.072-0.046,0.136-0.102,0.197-0.157
			c3.223-2.615,5.287-6.605,5.287-11.067C74.846,6.391,68.453,0.001,60.597,0.001 M22.792,21.668
			c-0.999-1.887-2.638-3.385-4.601-4.254c0.666-0.883,1.063-1.979,1.063-3.165c0-2.897-2.356-5.255-5.253-5.255
			S8.75,11.352,8.75,14.249c0,1.265,0.449,2.425,1.195,3.332c-1.803,0.89-3.304,2.319-4.24,4.088
			c-1.729-1.991-2.781-4.585-2.781-7.419c0-6.245,5.079-11.326,11.324-11.326s11.326,5.082,11.326,11.326
			C25.573,17.084,24.522,19.678,22.792,21.668 M11.672,14.249c0-1.285,1.045-2.33,2.33-2.33c1.283,0,2.328,1.045,2.328,2.33
			c0,1.283-1.045,2.328-2.328,2.328C12.717,16.577,11.672,15.532,11.672,14.249 M14.247,25.573c-2.31,0-4.462-0.698-6.254-1.891
			c0.962-2.469,3.454-4.182,6.254-4.182c2.802,0,5.294,1.713,6.256,4.182C18.709,24.875,16.559,25.573,14.247,25.573 M28.496,14.249
			c0-7.858-6.39-14.248-14.248-14.248c-7.856,0-14.246,6.39-14.246,14.248c0,4.462,2.062,8.452,5.285,11.067
			c0.06,0.055,0.127,0.111,0.197,0.157c2.418,1.893,5.463,3.022,8.765,3.022c3.304,0,6.346-1.128,8.765-3.022
			c0.072-0.046,0.136-0.102,0.199-0.157C26.434,22.702,28.496,18.711,28.496,14.249 M45.965,63.97
			c-0.999-1.887-2.636-3.385-4.598-4.256c0.666-0.881,1.063-1.979,1.063-3.165c0-2.897-2.356-5.253-5.253-5.253
			s-5.253,2.356-5.253,5.253c0,1.265,0.449,2.425,1.195,3.334c-1.806,0.888-3.304,2.317-4.24,4.088
			c-1.732-1.991-2.781-4.585-2.781-7.421c0-6.245,5.079-11.324,11.324-11.324s11.324,5.079,11.324,11.324
			C48.746,59.385,47.696,61.979,45.965,63.97 M34.847,56.548c0-1.285,1.045-2.328,2.33-2.328c1.283,0,2.328,1.043,2.328,2.328
			c0,1.283-1.045,2.328-2.328,2.328C35.892,58.876,34.847,57.832,34.847,56.548 M37.422,67.872c-2.31,0-4.462-0.698-6.256-1.889
			c0.962-2.471,3.456-4.182,6.256-4.182s5.294,1.711,6.256,4.182C41.884,67.174,39.734,67.872,37.422,67.872 M37.422,42.302
			c-7.856,0-14.248,6.39-14.248,14.246c0,4.462,2.065,8.452,5.287,11.067c0.06,0.058,0.127,0.111,0.197,0.157
			c2.418,1.893,5.463,3.024,8.765,3.024s6.346-1.131,8.765-3.024c0.072-0.046,0.136-0.099,0.197-0.157
			c3.225-2.615,5.287-6.605,5.287-11.067C51.671,48.69,45.278,42.302,37.422,42.302"/>
	</g>
</g>
</svg>
