<?xml version="1.0" encoding="iso-8859-1"?>
<!-- Generator: Adobe Illustrator 21.1.0, SVG Export Plug-In . SVG Version: 6.00 Build 0)  -->
<svg version="1.1" id="Layer_1" xmlns="http://www.w3.org/2000/svg" xmlns:xlink="http://www.w3.org/1999/xlink" x="0px" y="0px"
	 viewBox="0 0 89 93" style="enable-background:new 0 0 89 93;" xml:space="preserve">
<g id="Clip-8">
</g>
<g>
	<circle style="fill:#ED1D24;" cx="13.746" cy="73.351" r="1.355"/>
	<circle style="fill:#ED1D24;" cx="82.92" cy="51.812" r="1.355"/>
	<path style="fill:#ED1D24;" d="M59.237,33.002h3.073c0.96,0,1.742,0.781,1.742,1.742c0,0.747,0.608,1.355,1.355,1.355
		c0.747,0,1.355-0.608,1.355-1.355c0-2.394-1.948-4.39-4.342-4.448l-0.441-0.011v-1.991c0-0.747-0.608-1.355-1.355-1.355
		s-1.355,0.608-1.355,1.355v1.983l-0.415,0.033c-2.449,0.197-4.367,2.276-4.367,4.734v1.614c0,2.62,2.131,4.751,4.751,4.751h2.774
		c1.125,0,2.041,0.916,2.041,2.041v1.613c0,1.125-0.916,2.041-2.041,2.041h-3.073c-0.96,0-1.742-0.782-1.742-1.742
		c0-0.747-0.608-1.355-1.355-1.355c-0.747,0-1.355,0.608-1.355,1.355c0,2.394,1.948,4.39,4.342,4.448l0.441,0.011v1.991
		c0,0.747,0.608,1.355,1.355,1.355s1.355-0.607,1.355-1.356v-1.983l0.415-0.033c2.449-0.197,4.367-2.276,4.367-4.734v-1.613
		c0-2.62-2.131-4.751-4.751-4.751h-2.774c-1.125,0-2.041-0.915-2.041-2.041v-1.613C57.196,33.918,58.112,33.002,59.237,33.002z"/>
	<path style="fill:#ED1D24;" d="M87.837,61.31c-0.695-1.573-1.961-2.782-3.564-3.403c-0.751-0.291-1.535-0.439-2.328-0.439
		c-0.895,0-1.769,0.186-2.598,0.553l-11.398,5.256c-0.329,0.152-0.579,0.422-0.704,0.762c-0.125,0.339-0.111,0.707,0.041,1.036
		c0.221,0.479,0.705,0.788,1.232,0.788c0.196,0,0.386-0.042,0.566-0.125l11.371-5.244c0.476-0.208,0.978-0.313,1.491-0.313
		c0.46,0,0.913,0.085,1.348,0.253c0.928,0.359,1.661,1.059,2.063,1.97s0.426,1.924,0.066,2.853c-0.359,0.929-1.059,1.662-1.97,2.064
		L60.17,77.601c-1.788,0.79-3.68,1.19-5.624,1.19c-2.132,0-4.273-0.504-6.193-1.458l-8.523-4.234
		c-2.294-1.14-4.852-1.742-7.398-1.742c-2.322,0-4.583,0.478-6.72,1.422l-0.521,0.229l-6.682-15.133l9.197-4.06
		c2.323-1.026,4.777-1.546,7.292-1.546c2.124,0,4.221,0.375,6.234,1.114l17.139,6.294c1.759,0.646,2.697,2.615,2.09,4.388
		c-0.481,1.406-1.804,2.35-3.293,2.35c-0.377,0-0.75-0.061-1.109-0.183l-13.253-4.483c-0.141-0.048-0.287-0.072-0.434-0.072
		c-0.581,0-1.097,0.37-1.283,0.921c-0.116,0.342-0.091,0.71,0.069,1.034c0.16,0.325,0.437,0.567,0.78,0.683l13.254,4.483
		c0.639,0.217,1.302,0.326,1.972,0.326c2.65,0,5.006-1.681,5.862-4.183c1.08-3.156-0.589-6.658-3.72-7.808l-17.139-6.294
		c-1.117-0.411-2.274-0.727-3.44-0.941l-0.37-0.068V39.469c0-10.094,8.212-18.306,18.306-18.306h6.597
		c10.094,0,18.306,8.212,18.306,18.306v4.707c0,0.747,0.608,1.355,1.355,1.355c0.747,0,1.355-0.608,1.355-1.355v-4.707
		c0-10.029-7.14-18.702-16.977-20.625l-0.365-0.071v-5.935l4.626-7.913c0.193-0.331,0.237-0.729,0.121-1.094
		c-0.116-0.365-0.383-0.665-0.731-0.823l-5.598-2.543c-0.177-0.08-0.365-0.121-0.56-0.121c-0.157,0-0.312,0.027-0.459,0.08
		l-4.315,1.553l-3.843-1.536c-0.161-0.064-0.33-0.097-0.503-0.097c-0.168,0-0.332,0.031-0.488,0.091l-5.857,2.26
		c-0.366,0.141-0.652,0.434-0.786,0.802c-0.133,0.368-0.101,0.776,0.089,1.119l4.551,8.205v5.918l-0.369,0.069
		c-9.946,1.85-17.165,10.539-17.165,20.661v10.095l-0.456-0.004c-0.065-0.001-0.13-0.001-0.194-0.001
		c-2.893,0-5.714,0.598-8.385,1.777l-9.196,4.06l-0.211-0.316c-0.461-0.689-1.113-1.212-1.886-1.511
		c-0.47-0.182-0.96-0.274-1.456-0.274c-0.558,0-1.102,0.115-1.62,0.344L0.811,58.648C0.318,58.864,0,59.351,0,59.889v30.678
		c0,0.474,0.241,0.906,0.645,1.154c0.214,0.131,0.459,0.201,0.71,0.201c0.211,0,0.422-0.05,0.61-0.145l22.211-11.221
		c0.962-0.438,1.702-1.222,2.084-2.209c0.312-0.804,0.36-1.666,0.137-2.492l-0.101-0.374l0.511-0.225
		c1.789-0.789,3.681-1.19,5.625-1.19c2.132,0,4.273,0.504,6.193,1.458l8.523,4.234c2.293,1.14,4.851,1.742,7.397,1.742h0.001
		c2.322,0,4.582-0.478,6.719-1.422l23.283-10.28c1.573-0.694,2.782-1.96,3.403-3.563C88.572,64.632,88.531,62.883,87.837,61.31z
		 M64.224,18.453H55.89v-4.627h8.334V18.453z M51.753,4.662l3.908-1.507l3.827,1.53c0.161,0.064,0.33,0.097,0.503,0.097
		c0.157,0,0.311-0.027,0.459-0.08l4.281-1.541l3.73,1.694L64.8,11.117h-9.468L51.753,4.662z M23.733,77.369
		c-0.127,0.328-0.374,0.586-0.696,0.729c-0.021,0.01-0.041,0.02-0.062,0.03L2.71,88.365V80.03l5.33-2.618
		c0.671-0.329,0.948-1.143,0.619-1.813c-0.229-0.468-0.696-0.758-1.217-0.758c-0.208,0-0.408,0.047-0.597,0.139l-4.136,2.031V60.774
		l10.624-4.656c0.169-0.074,0.347-0.112,0.529-0.112c0.205,0,0.373,0.049,0.478,0.09c0.19,0.074,0.537,0.262,0.728,0.695
		l0.409,0.925l0.017,0.033l0.003,0.013l8.213,18.6C23.851,76.684,23.86,77.041,23.733,77.369z"/>
</g>
</svg>
