<?xml version="1.0" encoding="iso-8859-1"?>
<!-- Generator: Adobe Illustrator 21.1.0, SVG Export Plug-In . SVG Version: 6.00 Build 0)  -->
<svg version="1.1" id="Layer_1" xmlns="http://www.w3.org/2000/svg" xmlns:xlink="http://www.w3.org/1999/xlink" x="0px" y="0px"
	 viewBox="0 0 89 93" style="enable-background:new 0 0 89 93;" xml:space="preserve">
<path id="Fill-1" style="fill:#ED1D24;stroke:#ED1D24;stroke-width:0.5;" d="M77.772,45.114H13.875
	c-0.668,0-1.213-0.544-1.213-1.213s0.545-1.213,1.213-1.213h63.897c0.669,0,1.213,0.544,1.213,1.213S78.441,45.114,77.772,45.114z
	 M52.297,47.779c0.34-0.337,0.79-0.522,1.268-0.522c0.685,0,1.325,0.401,1.621,1.017l-10.005,9.93h-3.388L52.297,47.779z
	 M38.75,58.204h-3.388l10.505-10.425c0.34-0.337,0.79-0.522,1.268-0.522c0.681,0,1.326,0.403,1.62,1.017L38.75,58.204z
	 M37.125,47.257h6.227L32.404,58.121c0,0,4.349-6.665,4.452-6.812C37.711,50.084,37.779,48.525,37.125,47.257z M61.263,50.335
	c-0.013,0.012-0.027,0.026-0.039,0.041l-12.97,14.303c-0.26,0.251-0.585,0.416-0.941,0.479c-0.025,0.004-0.049,0.009-0.074,0.015
	l-24.954,6.165V60.741c0,0,10.09-12.981,10.1-12.993c0.588-0.756,1.899-0.57,2.504,0.031c0.622,0.618,0.711,1.588,0.211,2.305
	c-0.1,0.142-5.605,8.601-5.612,8.611c-0.457,0.704,0.071,1.651,0.902,1.651h15.232c0.283,0,0.554-0.112,0.755-0.311
	c0,0,12.336-12.242,12.35-12.256c0.697-0.692,1.854-0.687,2.546,0.01C61.972,48.493,61.966,49.635,61.263,50.335z M20.142,76.571
	l-9.999,1.183V61.445h9.999V76.571z M49.262,17.116c-1.473-0.132-2.954-0.18-4.432-0.142c-0.776,0.02-1.55,0.065-2.323,0.131
	c-0.156,0.014-0.314,0.026-0.47,0.041c0.402-1.719,1.948-3.004,3.788-3.004s3.386,1.285,3.787,3.004
	C49.495,17.135,49.377,17.127,49.262,17.116z M78.576,40.643c-0.618-1.738-2.576-6.595-6.639-11.502
	c-2.924-3.531-6.336-6.347-10.14-8.37c-3.078-1.636-6.416-2.747-9.97-3.329c-0.298-3.05-2.876-5.441-6.003-5.441
	c-3.126,0-5.703,2.389-6.003,5.438c-3.28,0.537-6.377,1.528-9.252,2.962c-3.719,1.858-7.084,4.461-10.001,7.741
	c-0.919,1.034,0.682,2.458,1.601,1.424c5.101-5.736,11.422-9.134,18.835-10.141c0.006-0.001,0.011-0.001,0.017-0.002
	c6.677-0.913,13.74,0.047,19.728,3.217c3.551,1.881,6.743,4.507,9.488,7.807c3.327,3.999,5.192,8.046,6.008,10.099H15.403
	c0.651-1.641,1.972-4.554,4.17-7.69c0.789-1.126-0.956-2.369-1.754-1.23c-2.796,3.99-4.233,7.578-4.746,9.017
	c-1.464,0.362-2.552,1.685-2.552,3.258c0,1.851,1.505,3.356,3.355,3.356h16.177l-9.363,12.045H9.071C8.479,59.302,8,59.782,8,60.374
	v18.585c0,0.311,0.142,0.597,0.363,0.796c0.191,0.17,0.44,0.275,0.708,0.275c0.042,0,0.084-0.003,0.126-0.008l12.141-1.435
	c0.539-0.064,0.946-0.521,0.946-1.064v-3.979l25.435-6.283c0.783-0.144,1.495-0.517,2.061-1.079c0.013-0.012,0.026-0.026,0.039-0.04
	l12.974-14.308c1.229-1.24,1.466-3.099,0.708-4.577h14.271c1.851,0,3.356-1.505,3.356-3.356
	C81.129,42.328,80.039,41.005,78.576,40.643z"/>
</svg>
