<?xml version="1.0" encoding="utf-8"?>
<!-- Generator: Adobe Illustrator 21.1.0, SVG Export Plug-In . SVG Version: 6.00 Build 0)  -->
<svg version="1.1" id="Layer_1" xmlns="http://www.w3.org/2000/svg" xmlns:xlink="http://www.w3.org/1999/xlink" x="0px" y="0px"
	 viewBox="0 0 22 24" style="enable-background:new 0 0 22 24;" xml:space="preserve">
<style type="text/css">
	.st0{fill:#ED1D24;}
</style>
<g>
	<polygon class="st0" points="11.7,13.1 11.7,8.2 10.3,8.2 10.3,14.5 15.7,14.5 15.7,13.1 	"/>
	<path class="st0" d="M18.5,6l1.9-1.9L19.3,3l-2,2c-1.6-1.2-3.6-2-5.6-2.1V1.7h1.8V0.2H8.3v1.5h1.9v1.2C8.2,3,6.2,3.8,4.6,5L2.7,3.1
		l-1,1.1L3.5,6c-1.9,2-3,4.5-3,7.3c0,5.8,4.7,10.4,10.4,10.4S21.3,19,21.3,13.3C21.4,10.6,20.4,8,18.5,6z M11,22.3
		c-4.9,0-8.9-4-8.9-8.9s4-8.9,8.9-8.9s8.9,4,8.9,8.9S15.9,22.3,11,22.3z"/>
	<path class="st0" d="M11,5.4c-4.3,0-7.9,3.5-7.9,7.8s3.5,7.9,7.9,7.9s7.9-3.5,7.9-7.8C18.9,8.9,15.3,5.4,11,5.4z M11,19.7
		c-3.5,0-6.4-2.9-6.4-6.4S7.5,6.9,11,6.9s6.4,2.9,6.4,6.4S14.5,19.7,11,19.7z"/>
</g>
</svg>
