<?xml version="1.0" encoding="iso-8859-1"?>
<!-- Generator: Adobe Illustrator 21.1.0, SVG Export Plug-In . SVG Version: 6.00 Build 0)  -->
<svg version="1.1" id="Layer_1" xmlns="http://www.w3.org/2000/svg" xmlns:xlink="http://www.w3.org/1999/xlink" x="0px" y="0px"
	 viewBox="0 0 16 19" style="enable-background:new 0 0 16 19;" xml:space="preserve">
<path id="path-1_1_" style="fill:#ED1D24;" d="M15.675,4.151v0.713c0,0.201-0.156,0.357-0.356,0.357H14.25v10.564
	c0,1.226-0.802,2.273-1.781,2.273H3.206c-0.98,0-1.781-1.003-1.781-2.229V5.221H0.356C0.156,5.221,0,5.065,0,4.864V4.151
	C0,3.95,0.156,3.794,0.356,3.794h3.44l0.779-1.861c0.223-0.546,0.891-0.992,1.481-0.992h3.563c0.59,0,1.258,0.446,1.481,0.992
	l0.779,1.861h3.44C15.519,3.794,15.675,3.95,15.675,4.151z M12.825,15.785V5.221H2.85v10.564c0,0.535,0.301,0.847,0.356,0.847h9.263
	C12.524,16.632,12.825,16.32,12.825,15.785z M11.4,7.717v6.419c0,0.201-0.156,0.357-0.356,0.357h-0.713
	c-0.2,0-0.356-0.156-0.356-0.357V7.717c0-0.201,0.156-0.357,0.356-0.357h0.713C11.244,7.36,11.4,7.516,11.4,7.717z M8.55,7.717
	v6.419c0,0.201-0.156,0.357-0.356,0.357H7.481c-0.2,0-0.356-0.156-0.356-0.357V7.717c0-0.201,0.156-0.357,0.356-0.357h0.713
	C8.394,7.36,8.55,7.516,8.55,7.717z M5.7,7.717v6.419c0,0.201-0.156,0.357-0.356,0.357H4.631c-0.2,0-0.356-0.156-0.356-0.357V7.717
	c0-0.201,0.156-0.357,0.356-0.357h0.713C5.544,7.36,5.7,7.516,5.7,7.717z"/>
</svg>
