<?xml version="1.0" encoding="iso-8859-1"?>
<!-- Generator: Adobe Illustrator 21.1.0, SVG Export Plug-In . SVG Version: 6.00 Build 0)  -->
<svg version="1.1" id="Layer_1" xmlns="http://www.w3.org/2000/svg" xmlns:xlink="http://www.w3.org/1999/xlink" x="0px" y="0px"
	 viewBox="0 0 124 70" style="enable-background:new 0 0 124 70;" xml:space="preserve">
<g>
	<path style="fill:#ED1D24;" d="M40.377,57.954h-3.844c-0.795,0-1.441,0.646-1.441,1.441c0,0.795,0.646,1.441,1.441,1.441h3.844
		c0.795,0,1.441-0.646,1.441-1.441C41.818,58.6,41.172,57.954,40.377,57.954z"/>
	<path style="fill:#ED1D24;" d="M121.091,61.797h-2.883l-8.747-20.992c-0.524-1.257-1.743-2.07-3.104-2.07h-0.64
		c-1.854,0-3.363,1.509-3.363,3.363v15.855h-8.758l-0.056-0.292c-0.028-0.146-0.061-0.292-0.095-0.435l-0.082-0.338l0.334-0.094
		c2.269-0.639,3.854-2.731,3.854-5.086v-3.844c0-1.219-0.665-2.346-1.737-2.941l-0.185-0.103V28.647
		c0-2.914-2.371-5.285-5.285-5.285H59.114V7.974c0-1.925-0.75-3.735-2.111-5.096l-2.155-2.155c-0.272-0.272-0.634-0.422-1.019-0.422
		c-0.385,0-0.747,0.15-1.019,0.422c-0.272,0.272-0.422,0.634-0.422,1.019s0.15,0.747,0.422,1.019l2.155,2.155
		c0.817,0.817,1.266,1.902,1.266,3.057v15.388h-5.12l-3.112-12.446l0.365-0.078c0.661-0.14,1.141-0.733,1.141-1.409
		c0-0.795-0.646-1.441-1.441-1.441H17.316c-0.795,0-1.441,0.647-1.441,1.441c0,0.795,0.646,1.441,1.441,1.441h0.48v6.726H7.707
		c-0.795,0-1.441,0.647-1.441,1.441v7.079L6.083,26.22c-2.258,1.282-3.661,3.685-3.661,6.27v12.33l-0.185,0.103
		C1.165,45.518,0.5,46.645,0.5,47.864v3.844c0,2.355,1.585,4.447,3.854,5.086l0.335,0.095l-0.083,0.338
		c-0.174,0.712-0.262,1.441-0.262,2.168c0,5.033,4.095,9.128,9.128,9.128h71.105c4.365,0,8.134-3.11,8.961-7.395l0.056-0.292h8.758
		v0.48c0,1.854,1.509,3.363,3.363,3.363h15.374c0.795,0,1.441-0.646,1.441-1.441C122.532,62.444,121.886,61.797,121.091,61.797z
		 M51.427,26.245h38.916c1.325,0,2.402,1.078,2.402,2.402v15.855H51.427V26.245z M63.918,49.786c0,1.325-1.078,2.402-2.402,2.402
		s-2.402-1.078-2.402-2.402c0-1.325,1.078-2.402,2.402-2.402c0.136,0,0.274,0.013,0.443,0.044l0.327,0.084
		C63.262,47.844,63.918,48.757,63.918,49.786z M56.782,47.384l-0.191,0.491c-0.238,0.612-0.359,1.255-0.359,1.911
		c0,0.656,0.121,1.299,0.359,1.911l0.191,0.491H41.267l0.191-0.491c0.238-0.612,0.359-1.255,0.359-1.911
		c0-0.656-0.121-1.299-0.359-1.911l-0.191-0.491H56.782z M28.366,10.87h16.651l3.528,14.11v5.664l-15.448-3.862
		c-2.785-0.696-4.731-3.188-4.731-6.059V10.87z M9.148,20.479h8.648v4.804H9.631l-0.483,0.01V20.479z M5.304,32.49
		c0-2.384,1.94-4.324,4.324-4.324h9.609c0.795,0,1.441-0.646,1.441-1.441V10.87h4.804v9.853c0,4.196,2.843,7.838,6.914,8.856
		l16.147,4.037v10.886H5.304V32.49z M38.935,49.786c0,1.325-1.078,2.402-2.402,2.402s-2.402-1.078-2.402-2.402
		c0-1.027,0.662-1.943,1.657-2.281l0.132-0.034c0.022-0.005,0.044-0.013,0.073-0.023l0.028-0.009l0.029-0.007
		c0.159-0.032,0.321-0.049,0.483-0.049C37.858,47.384,38.935,48.462,38.935,49.786z M6.138,53.968l-0.114,0.154L5.785,54.11
		c-1.325,0-2.402-1.078-2.402-2.402v-3.844c0-0.265,0.216-0.48,0.48-0.48h17.968l0.086,0.683l-8.646,2.205l-0.04,0.001
		C10.41,50.347,7.825,51.694,6.138,53.968z M13.472,65.641c-3.444,0-6.246-2.802-6.246-6.246c0-3.44,2.799-6.242,6.24-6.246h0.011
		c3.441,0.003,6.241,2.805,6.241,6.246C19.718,62.839,16.916,65.641,13.472,65.641z M48.064,60.836h27.496l0.056,0.292
		c0.275,1.424,0.901,2.783,1.809,3.928l0.463,0.584H20.161l0.464-0.584c0.909-1.145,1.534-2.504,1.809-3.928l0.056-0.292h6.356
		c0.795,0,1.441-0.646,1.441-1.441c0-0.795-0.646-1.441-1.441-1.441H22.49l-0.056-0.292c-0.403-2.09-1.54-3.987-3.201-5.341
		l-0.554-0.452l12.671-3.231l-0.062,0.521c-0.026,0.215-0.039,0.426-0.039,0.627c0,2.914,2.371,5.285,5.285,5.285h24.983
		c2.914,0,5.285-2.371,5.285-5.285c0-0.202-0.013-0.413-0.039-0.628l-0.061-0.521l12.671,3.231l-0.554,0.452
		c-1.661,1.354-2.798,3.252-3.202,5.341l-0.056,0.292H48.064c-0.795,0-1.441,0.646-1.441,1.441
		C46.622,60.19,47.269,60.836,48.064,60.836z M90.523,61.307c-0.836,2.592-3.225,4.334-5.945,4.334c-2.72,0-5.11-1.742-5.945-4.334
		l-0.152-0.471h12.194L90.523,61.307z M78.48,57.954l0.152-0.471c0.835-2.59,3.223-4.332,5.941-4.334h0.011
		c2.718,0.003,5.105,1.744,5.939,4.334l0.152,0.471H78.48z M92.024,54.12l-0.112-0.152c-1.688-2.274-4.273-3.621-7.093-3.695
		l-0.04-0.001l-8.646-2.205l0.086-0.683h17.968c0.265,0,0.48,0.215,0.48,0.48v3.844c0,1.324-1.086,2.402-2.417,2.403L92.024,54.12z
		 M105.717,61.797c-0.265,0-0.48-0.215-0.48-0.48V42.099c0-0.265,0.215-0.48,0.48-0.48h0.641c0.195,0,0.369,0.116,0.443,0.296
		l8.284,19.883H105.717z"/>
	<path style="fill:#ED1D24;" d="M13.472,57.954c-0.38,0-0.752,0.154-1.019,0.424c-0.268,0.266-0.422,0.637-0.422,1.017
		c0,0.38,0.154,0.752,0.424,1.019c0.266,0.268,0.637,0.422,1.017,0.422s0.752-0.154,1.019-0.424
		c0.268-0.266,0.422-0.637,0.422-1.017c0-0.38-0.154-0.752-0.424-1.019C14.223,58.108,13.852,57.954,13.472,57.954z"/>
	<path style="fill:#ED1D24;" d="M63.438,31.049c-0.795,0-1.441,0.647-1.441,1.441v3.844c0,0.795,0.646,1.441,1.441,1.441
		s1.441-0.646,1.441-1.441V32.49C64.879,31.696,64.233,31.049,63.438,31.049z"/>
	<path style="fill:#ED1D24;" d="M69.203,31.049c-0.795,0-1.441,0.647-1.441,1.441v3.844c0,0.795,0.646,1.441,1.441,1.441
		c0.795,0,1.441-0.646,1.441-1.441V32.49C70.644,31.696,69.998,31.049,69.203,31.049z"/>
	<path style="fill:#ED1D24;" d="M74.968,31.049c-0.795,0-1.441,0.647-1.441,1.441v3.844c0,0.795,0.646,1.441,1.441,1.441
		c0.795,0,1.441-0.646,1.441-1.441V32.49C76.41,31.696,75.763,31.049,74.968,31.049z"/>
</g>
</svg>
