<svg viewBox="0 0 264 264" xmlns="http://www.w3.org/2000/svg">
  <path d="M244.464 0C255.288 0 264 8.44 264 18.989v226.022c0 10.55-8.712 18.989-19.536 18.989H19.536C8.712 264 0 255.297 0 245.011V18.989C0 8.439 8.712 0 19.536 0h224.928zm-127.63 170.678c-4.19-4.332-6.281-9.58-6.281-15.752v-22.231h64.65c5.977 0 11.11-2.2 15.384-6.595 4.278-4.396 6.413-9.675 6.413-15.822 0-6.16-2.135-11.436-6.428-15.83-4.29-4.399-9.434-6.6-15.434-6.6h-64.58V65.426c0-6.161-2.125-11.432-6.373-15.823C99.955 45.196 94.845 43 88.908 43c-6.118 0-11.302 2.16-15.542 6.469C69.123 53.785 67 59.112 67 65.442v89.505c0 18.477 6.366 34.273 19.108 47.384C98.841 215.449 114.176 222 132.121 222h43.08c5.988 0 11.107-2.198 15.38-6.593 4.279-4.385 6.411-9.675 6.411-15.828 0-6.153-2.132-11.424-6.41-15.82-4.274-4.404-9.41-6.608-15.385-6.608h-43.095c-5.983 0-11.073-2.157-15.268-6.473z" fill="#38B44A" fill-rule="evenodd"/>
</svg>