<?xml version="1.0" encoding="iso-8859-1"?>
<!-- Generator: Adobe Illustrator 21.1.0, SVG Export Plug-In . SVG Version: 6.00 Build 0)  -->
<svg version="1.1" id="Layer_1" xmlns="http://www.w3.org/2000/svg" xmlns:xlink="http://www.w3.org/1999/xlink" x="0px" y="0px"
	 viewBox="0 0 81 82" style="enable-background:new 0 0 81 82;" xml:space="preserve">
<g>
	<path style="fill:#ED1D24;" d="M78.416,68.949L61.545,51.86l-0.948-0.96l-1.902,1.902l-9.8-9.8
		c3.282-4.448,5.223-9.947,5.223-15.899c0-14.807-12.003-26.809-26.809-26.809C12.502,0.294,0.5,12.296,0.5,27.103
		c0,14.807,12.002,26.809,26.809,26.809c5.952,0,11.45-1.941,15.899-5.222l9.8,9.799l-1.89,1.89l17.812,18.043
		c2.623,2.623,6.867,2.623,9.485,0.006C81.033,75.811,81.033,71.567,78.416,68.949z M42.472,45.86l-0.503,0.407
		c-4.064,3.113-9.145,4.965-14.66,4.965c-13.327,0-24.128-10.802-24.128-24.128S13.983,2.975,27.309,2.975
		c13.326,0,24.128,10.802,24.128,24.128c0,5.509-1.847,10.585-4.954,14.646l-0.418,0.517C44.999,43.585,43.796,44.788,42.472,45.86z
		 M45.294,46.985c0.663-0.6,1.296-1.233,1.897-1.896l9.609,9.609l-0.934,0.934l-0.962,0.961L45.294,46.985z M76.52,76.532
		c-1.57,1.57-4.117,1.57-5.687,0L54.898,60.391l2.85-2.85l2.838-2.837l15.928,16.135C78.09,72.415,78.09,74.962,76.52,76.532z"/>
	<path style="fill:#ED1D24;" d="M28.641,25.847V15.118c1.707,0.207,3.099,0.82,4.021,1.769v3.514c0,0.74,0.6,1.34,1.34,1.34
		c0.74,0,1.34-0.6,1.34-1.34v-3.992c0-0.008,0-0.017,0-0.025v-4.026c0-0.74-0.6-1.34-1.34-1.34c-0.74,0-1.34,0.6-1.34,1.34v1.221
		c-1.164-0.625-2.528-1.012-4.021-1.156v-1.406c0-0.74-0.6-1.34-1.34-1.34s-1.34,0.6-1.34,1.34v1.425
		c-4.399,0.552-8.043,3.774-8.043,7.958c0,4.203,3.636,7.411,8.043,7.959v10.724c-1.68-0.215-3.105-0.836-4.021-1.767v-3.512
		c0-0.74-0.6-1.34-1.34-1.34c-0.74,0-1.34,0.6-1.34,1.34v3.992c0,0.008,0,0.017,0,0.025v4.026c0,0.74,0.6,1.34,1.34,1.34
		c0.74,0,1.34-0.6,1.34-1.34v-1.237c1.173,0.627,2.547,1.02,4.021,1.168v1.409c0,0.74,0.6,1.34,1.34,1.34s1.34-0.6,1.34-1.34v-1.424
		c4.416-0.545,8.042-3.738,8.042-7.96C36.683,29.622,33.039,26.399,28.641,25.847z M25.96,25.653
		c-3.016-0.501-5.363-2.653-5.363-5.252c0-2.583,2.355-4.745,5.363-5.25V25.653z M28.641,39.059V28.556
		c3.007,0.505,5.361,2.668,5.361,5.25C34.002,36.421,31.665,38.562,28.641,39.059z"/>
</g>
</svg>
