<?xml version="1.0" encoding="utf-8"?>
<!-- Generator: Adobe Illustrator 21.1.0, SVG Export Plug-In . SVG Version: 6.00 Build 0)  -->
<svg version="1.1" id="Layer_1" xmlns="http://www.w3.org/2000/svg" xmlns:xlink="http://www.w3.org/1999/xlink" x="0px" y="0px"
	 viewBox="0 0 22 18" style="enable-background:new 0 0 22 18;" xml:space="preserve">
<style type="text/css">
	.st0{fill:#ED1D24;}
</style>
<g>
	<path class="st0" d="M9.4,3.6C9.3,3.6,9.2,3.5,9.1,3.5c-0.1,0-0.2,0-0.3,0.1C8.6,3.7,8.5,3.9,8.5,4.1v5.5c0,0.2,0.1,0.4,0.3,0.5
		c0.1,0,0.2,0.1,0.3,0.1c0.2,0,0.3-0.1,0.3-0.1l3.8-2.7c0.2-0.1,0.2-0.3,0.2-0.5c0-0.2-0.1-0.4-0.2-0.5L9.4,3.6z M9.7,8.5V5.2
		l2.3,1.6L9.7,8.5z"/>
	<path class="st0" d="M20.5,14.7h-7.7c-0.2-0.7-0.9-1.2-1.7-1.2S9.7,14,9.4,14.7H1.5C1.2,14.7,1,15,1,15.3s0.3,0.6,0.6,0.6h7.9
		c0.2,0.7,0.9,1.2,1.7,1.2s1.4-0.5,1.7-1.2h7.7c0.3,0,0.6-0.3,0.6-0.6S20.8,14.7,20.5,14.7z M11.1,16c-0.3,0-0.6-0.3-0.6-0.6
		c0-0.3,0.3-0.6,0.6-0.6s0.6,0.3,0.6,0.6S11.5,16,11.1,16z"/>
	<path class="st0" d="M2.1,12.8h17.7c0.6,0,1.2-0.5,1.2-1.2V2.1c0-0.6-0.5-1.2-1.2-1.2H2.1C1.5,0.9,1,1.4,1,2.1v9.5
		C1,12.2,1.5,12.8,2.1,12.8z M2.1,2.1C2.1,2.1,2.1,2,2.1,2.1h17.8l0,9.6l-17.7,0V2.1z"/>
</g>
</svg>
