<?xml version="1.0" encoding="utf-8"?>
<!-- Generator: Adobe Illustrator 21.1.0, SVG Export Plug-In . SVG Version: 6.00 Build 0)  -->
<svg version="1.1" id="Layer_1" xmlns="http://www.w3.org/2000/svg" xmlns:xlink="http://www.w3.org/1999/xlink" x="0px" y="0px"
	 viewBox="0 0 20 20" style="enable-background:new 0 0 20 20;" xml:space="preserve">
<style type="text/css">
	.st0{fill:#ED1D24;}
</style>
<g>
	<path class="st0" d="M10.8,6.9H8.3V4.4C8.3,4.2,8.1,4,7.9,4H7.2C7,4,6.8,4.2,6.8,4.4v2.5H4.4C4.2,6.9,4,7,4,7.2v0.7
		c0,0.2,0.2,0.4,0.4,0.4h2.5v2.5c0,0.2,0.2,0.4,0.4,0.4h0.7c0.2,0,0.4-0.2,0.4-0.4V8.3h2.5c0.2,0,0.4-0.2,0.4-0.4V7.2
		C11.1,7,11,6.9,10.8,6.9z"/>
	<path class="st0" d="M19.5,16.8L14,11.4c0.7-1.1,1-2.5,1-3.8c0-2-0.8-3.9-2.2-5.3C11.4,0.8,9.5,0,7.5,0c-2,0-3.9,0.8-5.3,2.2
		C0.8,3.6,0,5.5,0,7.5c0,2,0.8,3.9,2.2,5.3C3.6,14.3,5.5,15,7.5,15c1.4,0,2.7-0.4,3.8-1l5.5,5.5c0.3,0.3,0.8,0.5,1.3,0.5
		c0.5,0,0.9-0.2,1.3-0.5l0.1-0.1c0.3-0.3,0.5-0.8,0.5-1.3C20,17.6,19.8,17.2,19.5,16.8z M7.5,13.7c-1.7,0-3.2-0.6-4.4-1.8
		c-1.2-1.2-1.8-2.7-1.8-4.4c0-1.7,0.6-3.2,1.8-4.4c1.2-1.2,2.7-1.8,4.4-1.8s3.2,0.6,4.4,1.8c1.2,1.2,1.8,2.7,1.8,4.4
		s-0.6,3.2-1.8,4.4C10.7,13.1,9.2,13.7,7.5,13.7z M18.5,18.5L18.5,18.5c-0.2,0.2-0.3,0.2-0.4,0.2c-0.1,0-0.3-0.1-0.4-0.2l-5.3-5.3
		c0.1-0.1,0.3-0.3,0.4-0.4c0.1-0.1,0.3-0.3,0.4-0.4l5.3,5.3c0.1,0.1,0.2,0.2,0.2,0.4C18.7,18.3,18.6,18.4,18.5,18.5z"/>
</g>
</svg>
