<svg width="33" height="33" viewBox="0 0 33 33" fill="none" xmlns="http://www.w3.org/2000/svg">
<path opacity="0.2" d="M16.0566 28.3C22.6841 28.3 28.0566 22.9274 28.0566 16.3C28.0566 9.67259 22.6841 4.3 16.0566 4.3C9.42922 4.3 4.05664 9.67259 4.05664 16.3C4.05664 22.9274 9.42922 28.3 16.0566 28.3Z" fill="white"/>
<path d="M16.0566 28.3C22.6841 28.3 28.0566 22.9274 28.0566 16.3C28.0566 9.67259 22.6841 4.3 16.0566 4.3C9.42922 4.3 4.05664 9.67259 4.05664 16.3C4.05664 22.9274 9.42922 28.3 16.0566 28.3Z" stroke="#0D99FF" stroke-width="2.66667" stroke-miterlimit="10"/>
<path d="M11.0566 16.3H21.0566" stroke="#0D99FF" stroke-width="2.66667" stroke-linecap="round" stroke-linejoin="round"/>
<path d="M16.0566 11.3V21.3" stroke="#0D99FF" stroke-width="2.66667" stroke-linecap="round" stroke-linejoin="round"/>
</svg>
