<svg width="25" height="25" viewBox="0 0 25 25" fill="none" xmlns="http://www.w3.org/2000/svg">
<path d="M2.49512 6.25349C2.49512 5.70121 2.94283 5.25349 3.49512 5.25349H21.4951C22.0474 5.25349 22.4951 5.70121 22.4951 6.25349C22.4951 6.80578 22.0474 7.25349 21.4951 7.25349H3.49512C2.94283 7.25349 2.49512 6.80578 2.49512 6.25349Z" fill="#0D99FF"/>
<path d="M2.49512 12.2857C2.49512 11.7334 2.94283 11.2857 3.49512 11.2857H21.4951C22.0474 11.2857 22.4951 11.7334 22.4951 12.2857C22.4951 12.838 22.0474 13.2857 21.4951 13.2857H3.49512C2.94283 13.2857 2.49512 12.838 2.49512 12.2857Z" fill="#0D99FF"/>
<path d="M3.49512 17.3179C2.94283 17.3179 2.49512 17.7657 2.49512 18.3179C2.49512 18.8702 2.94283 19.3179 3.49512 19.3179H21.4951C22.0474 19.3179 22.4951 18.8702 22.4951 18.3179C22.4951 17.7657 22.0474 17.3179 21.4951 17.3179H3.49512Z" fill="#0D99FF"/>
</svg>
