<?xml version="1.0" encoding="UTF-8"?>
<svg width="301px" height="319px" viewBox="0 0 301 319" version="1.1" xmlns="http://www.w3.org/2000/svg" xmlns:xlink="http://www.w3.org/1999/xlink">
    <!-- Generator: Sketch 49 (51002) - http://www.bohemiancoding.com/sketch -->
    <title>Branding/NMX-full-logo</title>
    <desc>Created with Sketch.</desc>
    <defs>
        <polygon id="path-1" points="0.1108 49 44.9998 49 44.9998 0.7892 0.1108 0.7892 0.1108 49"></polygon>
        <polygon id="path-3" points="0 0.6896 0 9.1336 10.9188 9.1336 10.9188 0.6896 2.71050543e-20 0.6896"></polygon>
    </defs>
    <g id="Branding/NMX-full-logo" stroke="none" stroke-width="1" fill="none" fill-rule="evenodd">
        <g id="Page-1" transform="translate(0.304688, 0.000000)">
            <polygon id="Fill-1" fill="#000000" points="92.139 132.3382 108.992 132.3382 108.992 201.8292 93.13 201.8292 61.607 160.2942 61.607 201.8292 44.657 201.8292 44.657 132.3382 60.616 132.3382 92.239 174.1712"></polygon>
            <polygon id="Fill-2" fill="#000000" points="117.6165 132.3382 137.3435 132.3382 157.4665 172.9822 177.4895 132.3382 197.2185 132.3382 197.2185 201.8292 181.1575 201.8292 181.0585 157.8142 163.3135 194.8902 151.6185 194.8902 133.7735 157.8142 133.7735 201.8292 117.6165 201.8292"></polygon>
            <polygon id="Fill-3" fill="#000000" points="200.9827 132.3382 222.0967 132.3382 235.0847 152.0652 248.1697 132.3382 269.5817 132.3382 246.6817 165.5462 271.5637 201.8292 249.8547 201.8292 235.0847 180.3182 220.6107 201.8292 199.3967 201.8292 224.0797 166.4382"></polygon>
            <g id="Group-62" transform="translate(0.000000, 0.737000)">
                <path d="M157.7259,300.7032 C140.5429,300.7032 96.3469,296.6562 57.8669,258.9282 C32.3169,233.8772 17.2889,198.4352 16.6349,161.6902 C16.5909,159.2362 18.5459,157.2102 21.0019,157.1672 C21.0289,157.1652 21.0549,157.1652 21.0819,157.1652 C23.5009,157.1652 25.4829,159.1052 25.5269,161.5332 C26.1379,195.9642 40.1949,229.1472 64.0919,252.5782 C109.0799,296.6852 163.5539,291.6232 164.1019,291.5622 C166.5519,291.3122 168.7279,293.0872 168.9809,295.5292 C169.2339,297.9722 167.4569,300.1562 165.0159,300.4092 C164.5429,300.4572 161.9489,300.7032 157.7259,300.7032" id="Fill-4" fill="#000000"></path>
                <path d="M173.9525,299.5284 C171.7235,299.5284 169.7995,297.8574 169.5395,295.5894 C169.2605,293.1504 171.0105,290.9444 173.4495,290.6644 C240.4805,282.9654 291.0285,226.1984 291.0285,158.6214 C291.0285,85.3304 231.4015,25.7034 158.1105,25.7034 C84.8185,25.7034 25.1915,85.3304 25.1915,158.6214 C25.1915,161.0764 23.2015,163.0674 20.7455,163.0674 C18.2895,163.0674 16.2995,161.0764 16.2995,158.6214 C16.2995,80.4264 79.9155,16.8104 158.1105,16.8104 C236.3065,16.8104 299.9215,80.4264 299.9215,158.6214 C299.9215,230.7184 245.9865,291.2844 174.4645,299.5004 C174.2925,299.5194 174.1205,299.5284 173.9525,299.5284" id="Fill-6" fill="#ED1D24"></path>
                <g id="Group-10" transform="translate(158.000000, 269.000000)">
                    <mask id="mask-2" fill="white">
                        <use xlink:href="#path-1"></use>
                    </mask>
                    <g id="Clip-9"></g>
                </g>
                <polygon id="Fill-13" fill="#000000" points="3.8255 191.1183 3.5155 189.5323 11.1155 181.6803 11.1095 181.6493 2.3125 183.3673 2.0665 182.1113 12.6595 180.0423 12.9705 181.6283 5.3705 189.4803 5.3755 189.5113 14.1745 187.7923 14.4195 189.0503"></polygon>
                <path d="M2.4642,172.0499 L2.4672,172.0799 L7.9702,173.7819 L7.5302,169.3989 L2.4642,172.0499 Z M0.8842,172.7899 L0.7642,171.5919 L11.0462,165.9499 L11.1942,167.4379 L8.6642,168.7939 L9.2022,174.1629 L11.9532,175.0069 L12.0982,176.4469 L0.8842,172.7899 Z" id="Fill-15" fill="#000000"></path>
                <g id="Group-19" transform="translate(0.000000, 156.000000)">
                    <mask id="mask-4" fill="white">
                        <use xlink:href="#path-3"></use>
                    </mask>
                    <g id="Clip-18"></g>
                    <polygon id="Fill-17" fill="#000000" mask="url(#mask-4)" points="1.1878 0.6896 1.2848 4.2556 10.8848 3.9986 10.9188 5.2796 1.3188 5.5376 1.4138 9.1026 0.2248 9.1336 -0.0002 0.7216"></polygon>
                </g>
                <polygon id="Fill-20" fill="#000000" points="0.1195 152.2843 0.1625 151.0043 10.9485 151.3593 10.9075 152.6383"></polygon>
                <path d="M10.7503,141.3561 C10.8163,140.7291 10.7623,140.1441 10.5843,139.5981 C10.4063,139.0531 10.1363,138.5721 9.7713,138.1551 C9.4063,137.7391 8.9653,137.3981 8.4463,137.1331 C7.9273,136.8691 7.3593,136.7041 6.7433,136.6381 C6.1273,136.5731 5.5383,136.6151 4.9753,136.7651 C4.4123,136.9151 3.9093,137.1561 3.4653,137.4861 C3.0213,137.8181 2.6553,138.2311 2.3673,138.7271 C2.0793,139.2231 1.9023,139.7841 1.8363,140.4111 C1.7703,141.0381 1.8253,141.6231 2.0023,142.1681 C2.1803,142.7131 2.4513,143.1941 2.8153,143.6111 C3.1803,144.0281 3.6213,144.3691 4.1403,144.6331 C4.6593,144.8981 5.2273,145.0631 5.8433,145.1281 C6.4603,145.1931 7.0493,145.1511 7.6113,145.0021 C8.1753,144.8511 8.6783,144.6111 9.1213,144.2801 C9.5653,143.9491 9.9323,143.5361 10.2193,143.0391 C10.5073,142.5441 10.6843,141.9831 10.7503,141.3561 M11.9333,141.4811 C11.8463,142.3001 11.6243,143.0351 11.2703,143.6881 C10.9143,144.3401 10.4593,144.8901 9.9063,145.3361 C9.3543,145.7841 8.7163,146.1101 7.9943,146.3141 C7.2723,146.5201 6.5073,146.5781 5.6983,146.4921 C4.8903,146.4071 4.1543,146.1891 3.4913,145.8361 C2.8283,145.4851 2.2733,145.0331 1.8263,144.4801 C1.3793,143.9271 1.0503,143.2941 0.8403,142.5811 C0.6293,141.8691 0.5663,141.1041 0.6533,140.2861 C0.7403,139.4661 0.9623,138.7311 1.3173,138.0791 C1.6733,137.4271 2.1273,136.8771 2.6813,136.4301 C3.2333,135.9821 3.8713,135.6571 4.5933,135.4531 C5.3143,135.2481 6.0803,135.1891 6.8883,135.2731 C7.6963,135.3601 8.4333,135.5791 9.0953,135.9301 C9.7583,136.2811 10.3133,136.7331 10.7613,137.2871 C11.2073,137.8401 11.5363,138.4731 11.7473,139.1851 C11.9573,139.8971 12.0203,140.6621 11.9333,141.4811" id="Fill-22" fill="#000000"></path>
                <polygon id="Fill-24" fill="#000000" points="2.3939 129.4738 2.7229 127.8908 12.7709 123.5948 12.7779 123.5658 3.9999 121.7418 4.2609 120.4888 14.8289 122.6828 14.4999 124.2658 4.4519 128.5628 4.4459 128.5918 13.2219 130.4158 12.9619 131.6688"></polygon>
                <path d="M8.5189,111.3644 L8.5099,111.3934 L12.9279,115.0904 L14.2169,110.8774 L8.5189,111.3644 Z M6.7759,111.4364 L7.1279,110.2854 L18.7919,109.0574 L18.3549,110.4864 L15.4979,110.7594 L13.9169,115.9194 L16.1269,117.7594 L15.7039,119.1444 L6.7759,111.4364 Z" id="Fill-26" fill="#000000"></path>
                <polygon id="Fill-28" fill="#000000" points="10.0599 101.6832 10.5289 100.4922 19.4659 104.0082 21.2749 99.4122 22.3799 99.8472 20.1039 105.6352"></polygon>
                <polygon id="Fill-30" fill="#000000" points="17.1868 85.3424 18.1138 83.6764 27.2868 84.5924 27.3008 84.5664 21.7008 77.2294 22.6048 75.6034 32.0368 80.8504 31.4148 81.9694 23.4998 77.5674 23.4858 77.5934 29.5168 85.3804 29.1378 86.0594 19.3428 85.0414 19.3288 85.0674 27.2428 89.4704 26.6198 90.5894"></polygon>
                <path d="M29.4759,68.2023 L29.4579,68.2273 L32.5419,73.0913 L35.0519,69.4713 L29.4759,68.2023 Z M27.7919,67.7403 L28.4789,66.7503 L39.9639,69.1283 L39.1129,70.3563 L36.3069,69.7473 L33.2329,74.1813 L34.7789,76.6083 L33.9539,77.7973 L27.7919,67.7403 Z" id="Fill-32" fill="#000000"></path>
                <path d="M40.4798,54.9606 C39.9358,54.9306 39.4268,55.0286 38.9538,55.2556 C38.4798,55.4826 38.0778,55.7956 37.7458,56.1926 C37.3608,56.6536 37.1018,57.1556 36.9668,57.6986 C36.8328,58.2406 36.8058,58.7846 36.8878,59.3296 C36.9698,59.8736 37.1548,60.3986 37.4428,60.9026 C37.7298,61.4066 38.1008,61.8476 38.5528,62.2246 C39.0368,62.6276 39.5528,62.9266 40.1008,63.1176 C40.6488,63.3096 41.1918,63.3956 41.7318,63.3766 C42.2708,63.3556 42.7918,63.2266 43.2928,62.9896 C43.7948,62.7536 44.2408,62.4006 44.6308,61.9326 C45.0538,61.4256 45.3328,60.8896 45.4648,60.3256 C45.5968,59.7606 45.5998,59.1746 45.4728,58.5656 L46.7088,58.3446 C46.8958,59.1366 46.8868,59.8936 46.6818,60.6156 C46.4768,61.3376 46.0968,62.0306 45.5448,62.6936 C45.0498,63.2876 44.4788,63.7506 43.8318,64.0836 C43.1828,64.4176 42.5078,64.6116 41.8058,64.6676 C41.1028,64.7246 40.3978,64.6396 39.6878,64.4106 C38.9778,64.1836 38.3068,63.8056 37.6738,63.2786 C37.0658,62.7716 36.5828,62.1926 36.2228,61.5436 C35.8648,60.8946 35.6468,60.2196 35.5688,59.5196 C35.4908,58.8186 35.5528,58.1166 35.7558,57.4136 C35.9588,56.7096 36.3178,56.0486 36.8328,55.4316 C37.3008,54.8706 37.8528,54.4146 38.4888,54.0646 C39.1248,53.7146 39.8188,53.5556 40.5718,53.5876 L40.4798,54.9606 Z" id="Fill-34" fill="#000000"></path>
                <polygon id="Fill-36" fill="#000000" points="43.0238 48.8312 43.9288 47.9252 47.1658 51.1562 51.2368 47.0792 48.0008 43.8482 48.9048 42.9412 56.5428 50.5672 55.6378 51.4742 52.0778 47.9192 48.0058 51.9972 51.5658 55.5512 50.6618 56.4572"></polygon>
                <polygon id="Fill-38" fill="#000000" points="53.1195 39.1573 54.0835 38.3133 61.1915 46.4353 60.2285 47.2793"></polygon>
                <polygon id="Fill-40" fill="#000000" points="58.4105 34.6061 59.6985 33.6301 70.0965 36.9961 70.1195 36.9771 64.7035 29.8351 65.7235 29.0611 72.2455 37.6611 70.9585 38.6381 60.5615 35.2721 60.5375 35.2901 65.9535 42.4321 64.9325 43.2061"></polygon>
                <polygon id="Fill-42" fill="#000000" points="70.5521 25.7975 76.2941 22.1855 76.9271 23.1915 72.2691 26.1225 74.0721 28.9865 78.4191 26.2515 79.0531 27.2575 74.7041 29.9935 76.7501 33.2455 81.6411 30.1685 82.2741 31.1745 76.2991 34.9325"></polygon>
                <path d="M84.2767,23.1437 L85.2887,22.6127 C85.6037,22.4477 85.9247,22.2687 86.2537,22.0727 C86.5817,21.8777 86.8617,21.6567 87.0927,21.4087 C87.3247,21.1607 87.4767,20.8827 87.5507,20.5747 C87.6247,20.2667 87.5567,19.9147 87.3487,19.5187 C87.1707,19.1767 86.9587,18.9367 86.7147,18.8007 C86.4717,18.6647 86.2097,18.5987 85.9297,18.6017 C85.6507,18.6047 85.3647,18.6607 85.0707,18.7687 C84.7777,18.8767 84.4917,19.0027 84.2127,19.1487 L82.6197,19.9857 L84.2767,23.1437 Z M80.9327,19.5267 L83.3767,18.2457 C83.8357,18.0037 84.3057,17.7917 84.7897,17.6077 C85.2717,17.4227 85.7407,17.3277 86.1947,17.3177 C86.6497,17.3087 87.0807,17.4187 87.4867,17.6467 C87.8937,17.8757 88.2537,18.2877 88.5647,18.8807 C88.9327,19.5827 89.0187,20.2607 88.8227,20.9147 C88.6257,21.5687 88.1847,22.1507 87.4997,22.6597 L92.5207,25.6357 L91.1307,26.3657 L86.2867,23.4327 L84.8287,24.1977 L87.0807,28.4897 L85.9467,29.0847 L80.9327,19.5267 Z" id="Fill-44" fill="#000000"></path>
                <polygon id="Fill-46" fill="#000000" points="96.2454 18.8478 90.1084 14.8118 91.6054 14.1628 96.3294 17.4318 97.2564 11.7138 98.6694 11.1008 97.4204 18.3388 99.2694 22.6048 98.0954 23.1138"></polygon>
                <polygon id="Fill-48" fill="#000000" points="113.2318 11.4982 108.3168 7.6132 109.8978 7.1512 113.8768 10.3882 115.4588 5.5272 116.9948 5.0792 114.9438 10.9982 120.3578 15.3412 118.7328 15.8152 114.3178 12.1172 112.5728 17.6152 111.0498 18.0592"></polygon>
                <path d="M129.515,4.6627 C129.111,4.2977 128.654,4.0547 128.142,3.9337 C127.631,3.8127 127.121,3.8027 126.614,3.9037 C126.026,4.0207 125.508,4.2467 125.062,4.5847 C124.617,4.9227 124.254,5.3287 123.976,5.8037 C123.698,6.2787 123.511,6.8037 123.418,7.3757 C123.325,7.9487 123.336,8.5247 123.451,9.1027 C123.574,9.7207 123.788,10.2767 124.093,10.7697 C124.399,11.2637 124.768,11.6727 125.201,11.9957 C125.632,12.3187 126.119,12.5457 126.658,12.6767 C127.196,12.8087 127.765,12.8137 128.363,12.6957 C129.011,12.5667 129.564,12.3237 130.021,11.9687 C130.479,11.6137 130.849,11.1587 131.133,10.6047 L132.233,11.2097 C131.881,11.9427 131.399,12.5257 130.786,12.9587 C130.172,13.3917 129.442,13.6927 128.595,13.8617 C127.837,14.0127 127.102,14.0127 126.388,13.8657 C125.675,13.7177 125.028,13.4437 124.446,13.0467 C123.864,12.6497 123.369,12.1397 122.959,11.5167 C122.551,10.8927 122.266,10.1787 122.105,9.3707 C121.951,8.5927 121.938,7.8387 122.068,7.1087 C122.197,6.3787 122.451,5.7167 122.829,5.1227 C123.209,4.5297 123.699,4.0227 124.299,3.6017 C124.9,3.1827 125.594,2.8937 126.381,2.7377 C127.098,2.5947 127.815,2.5867 128.529,2.7147 C129.244,2.8417 129.884,3.1537 130.45,3.6537 L129.515,4.6627 Z" id="Fill-50" fill="#000000"></path>
                <polygon id="Fill-52" fill="#000000" points="135.3763 1.4982 136.6493 1.3662 137.1213 5.9152 142.8543 5.3202 142.3823 0.7722 143.6553 0.6402 144.7693 11.3752 143.4953 11.5072 142.9763 6.5032 137.2443 7.0982 137.7643 12.1022 136.4893 12.2342"></polygon>
                <path d="M153.6204,1.9166 L153.5904,1.9166 L151.4054,7.2456 L155.8104,7.1986 L153.6204,1.9166 Z M153.0244,0.2756 L154.2274,0.2636 L158.9304,11.0076 L157.4364,11.0236 L156.3104,8.3826 L150.9144,8.4386 L149.8304,11.1046 L148.3814,11.1186 L153.0244,0.2756 Z" id="Fill-54" fill="#000000"></path>
                <polygon id="Fill-56" fill="#000000" points="163.4671 0.4225 165.0771 0.5595 170.5481 10.0185 170.5781 10.0225 171.3351 1.0905 172.6131 1.1985 171.6991 11.9525 170.0891 11.8165 164.6181 2.3555 164.5891 2.3535 163.8311 11.2855 162.5541 11.1765"></polygon>
                <path d="M185.6849,13.5504 C185.0129,13.7774 184.3249,13.9084 183.6209,13.9444 C182.9159,13.9794 182.2189,13.9334 181.5299,13.8054 C180.7009,13.6534 179.9649,13.3784 179.3259,12.9804 C178.6859,12.5834 178.1589,12.0934 177.7449,11.5104 C177.3309,10.9274 177.0459,10.2674 176.8929,9.5314 C176.7399,8.7954 176.7399,8.0124 176.8929,7.1824 C177.0479,6.3434 177.3349,5.6084 177.7569,4.9784 C178.1779,4.3484 178.6939,3.8384 179.3029,3.4494 C179.9129,3.0614 180.5859,2.7954 181.3259,2.6534 C182.0649,2.5104 182.8349,2.5134 183.6349,2.6604 C184.3329,2.7894 184.9869,3.0184 185.5919,3.3474 C186.1989,3.6764 186.7089,4.1434 187.1239,4.7474 L185.9969,5.5624 C185.7089,5.1054 185.3279,4.7254 184.8519,4.4204 C184.3749,4.1154 183.8679,3.9124 183.3289,3.8134 C182.7179,3.7004 182.1339,3.7074 181.5739,3.8304 C181.0129,3.9544 180.5039,4.1754 180.0479,4.4944 C179.5909,4.8124 179.2059,5.2224 178.8909,5.7224 C178.5759,6.2224 178.3599,6.7924 178.2419,7.4314 C178.1249,8.0614 178.1249,8.6654 178.2399,9.2454 C178.3559,9.8244 178.5699,10.3464 178.8809,10.8124 C179.1929,11.2794 179.5979,11.6724 180.0979,11.9904 C180.5959,12.3104 181.1699,12.5304 181.8209,12.6504 C182.2499,12.7294 182.7089,12.7604 183.1989,12.7424 C183.6879,12.7234 184.1459,12.6514 184.5729,12.5234 L185.1729,9.2704 L182.7299,8.8184 L182.9459,7.6494 L186.6479,8.3324 L185.6849,13.5504 Z" id="Fill-58" fill="#000000"></path>
                <polygon id="Fill-60" fill="#000000" points="193.1878 5.0265 199.7258 6.8345 199.4098 7.9805 194.1048 6.5145 193.2028 9.7765 198.1548 11.1455 197.8368 12.2915 192.8858 10.9225 191.8618 14.6245 197.4308 16.1645 197.1138 17.3105 190.3108 15.4285"></polygon>
                <polygon id="Fill-11" fill="#000000" points="207.3158 49.2697 240.5728 47.9497 239.2328 14.6927 253.9128 28.2437 255.2418 61.4907 221.9958 62.8197"></polygon>
            </g>
        </g>
        <polygon id="Fill-8" fill="#ED1D24" points="200.367487 270.5262 178.340487 295.4772 203.304487 317.4902 183.365487 318.7372 158.415487 296.7232 180.429487 271.7732"></polygon>
    </g>
</svg>