<?xml version="1.0" encoding="UTF-8"?>
<svg width="301px" height="319px" viewBox="0 0 301 319" version="1.1" xmlns="http://www.w3.org/2000/svg" xmlns:xlink="http://www.w3.org/1999/xlink">
    <!-- Generator: Sketch 49 (51002) - http://www.bohemiancoding.com/sketch -->
    <title>Branding/NMX-full-logo-reverse</title>
    <desc>Created with Sketch.</desc>
    <defs>
        <polygon id="path-1" points="284.168917 0.6139 284.168917 284.4549 0.362196689 284.4549 0.362196689 0.6139 284.168917 0.6139"></polygon>
    </defs>
    <g id="Branding/NMX-full-logo-reverse" stroke="none" stroke-width="1" fill="none" fill-rule="evenodd">
        <g id="Page-1" transform="translate(0.000000, 0.695312)">
            <polygon id="Fill-1" fill="#FFFFFF" points="92.198393 131.8602 109.06137 131.8602 109.06137 201.6272 93.1900983 201.6272 61.6458964 159.9272 61.6458964 201.6272 44.6842474 201.6272 44.6842474 131.8602 60.6541911 131.8602 92.2970652 173.8602"></polygon>
            <polygon id="Fill-2" fill="#FFFFFF" points="117.691299 131.8602 137.431716 131.8602 157.566822 172.6652 177.604253 131.8602 197.34467 131.8602 197.34467 201.6272 181.274061 201.6272 181.175388 157.4382 163.418382 194.6612 151.715263 194.6612 133.859584 157.4382 133.859584 201.6272 117.691299 201.6272"></polygon>
            <polygon id="Fill-3" fill="#FFFFFF" points="201.111954 131.8602 222.239762 131.8602 235.235586 151.6652 248.330083 131.8602 269.756898 131.8602 246.842027 165.2022 271.739312 201.6272 250.015484 201.6272 235.235586 180.0312 220.752702 201.6272 199.525225 201.6272 224.224169 166.0962"></polygon>
            <g id="Group-61">
                <path d="M157.827058,301.6346 C140.634177,301.6346 96.409104,297.5716 57.9030311,259.6926 C32.3359715,234.5426 17.2989285,198.9596 16.644104,162.0696 C16.6012464,159.6056 18.5567497,157.5716 21.0145841,157.5276 C21.0414947,157.5266 21.0674086,157.5266 21.0953159,157.5266 C23.5152762,157.5266 25.4976901,159.4726 25.5415444,161.9106 C26.1545079,196.4786 40.2207762,229.7946 64.1323358,253.3186 C109.149776,297.6016 163.65968,292.5186 164.206862,292.4576 C166.658717,292.2066 168.836481,293.9886 169.090637,296.4396 C169.343796,298.8916 167.565703,301.0846 165.121823,301.3396 C164.649392,301.3876 162.053018,301.6346 157.827058,301.6346" id="Fill-4" fill="#FFFFFF"></path>
                <g id="Group-8" transform="translate(15.947020, 16.000000)">
                    <mask id="mask-2" fill="white">
                        <use xlink:href="#path-1"></use>
                    </mask>
                    <g id="Clip-7"></g>
                    <path d="M158.117094,284.4549 C155.887501,284.4549 153.961899,282.7759 153.701763,280.4999 C153.421693,278.0519 155.173872,275.8369 157.613766,275.5549 C224.688925,267.8249 275.269882,210.8339 275.269882,142.9879 C275.269882,69.4049 215.605104,9.5419 142.26476,9.5419 C68.9254119,9.5419 9.26063377,69.4049 9.26063377,142.9879 C9.26063377,145.4529 7.26825298,147.4509 4.81141523,147.4509 C2.35358079,147.4509 0.362196689,145.4529 0.362196689,142.9879 C0.362196689,64.4819 64.0197099,0.6139 142.26476,0.6139 C220.511803,0.6139 284.169316,64.4819 284.169316,142.9879 C284.169316,215.3729 230.197624,276.1779 158.629392,284.4269 C158.457962,284.4449 158.286531,284.4549 158.117094,284.4549" id="Fill-6" fill="#ED1D24" mask="url(#mask-2)"></path>
                </g>
                <polygon id="Fill-9" fill="#ED1D24" points="200.191113 270.5965 178.150338 295.6475 203.130348 317.7475 183.17963 318.9995 158.212577 296.8985 180.240395 271.8495"></polygon>
                <polygon id="Fill-11" fill="#FFFFFF" points="207.4493 49.201 240.72774 47.875 239.386197 14.487 254.076392 28.092 255.405975 61.471 222.138498 62.806"></polygon>
                <polygon id="Fill-13" fill="#FFFFFF" points="3.84442781 191.6883 3.53346093 190.0963 11.1342093 182.2093 11.1282291 182.1793 2.32647086 183.9083 2.08028874 182.6463 12.6790768 180.5633 12.9900437 182.1563 5.38929536 190.0433 5.3952755 190.0743 14.1970338 188.3453 14.4432159 189.6063"></polygon>
                <path d="M2.47447914,172.5623 L2.47746921,172.5923 L7.98317781,174.2963 L7.54064801,169.8953 L2.47447914,172.5623 Z M0.893730795,173.3063 L0.772134768,172.1033 L11.0579626,166.4333 L11.2074659,167.9253 L8.67687318,169.2893 L9.21907185,174.6803 L11.9709295,175.5243 L12.116446,176.9713 L0.893730795,173.3063 Z" id="Fill-15" fill="#FFFFFF"></path>
                <polygon id="Fill-17" fill="#FFFFFF" points="1.18924901 157.1106 1.2869245 160.6896 10.8930106 160.4276 10.9278947 161.7136 1.32081192 161.9746 1.41848742 165.5556 0.229437748 165.5886 0.000199337748 157.1426"></polygon>
                <polygon id="Fill-19" fill="#FFFFFF" points="0.118107616 152.6853 0.159968543 151.4013 10.9541076 151.7533 10.9132434 153.0373"></polygon>
                <path d="M10.7526768,141.6961 C10.8174616,141.0671 10.7626437,140.4791 10.5852331,139.9311 C10.4078225,139.3841 10.1377199,138.9011 9.7719351,138.4831 C9.40714702,138.0651 8.96561391,137.7231 8.44633907,137.4581 C7.92806093,137.1931 7.35895166,137.0271 6.74200132,136.9611 C6.12505099,136.8961 5.53501126,136.9391 4.97188212,137.0891 C4.40875298,137.2401 3.90642185,137.4821 3.46189868,137.8131 C3.0173755,138.1461 2.65159073,138.5621 2.36354768,139.0591 C2.07550464,139.5571 1.89909073,140.1201 1.83231258,140.7491 C1.76752781,141.3781 1.8223457,141.9671 1.9987596,142.5141 C2.17716689,143.0621 2.44826623,143.5441 2.8130543,143.9631 C3.17784238,144.3811 3.62037219,144.7231 4.13865033,144.9881 C4.65792517,145.2541 5.22603775,145.4191 5.84298808,145.4851 C6.45993841,145.5501 7.05097483,145.5081 7.61310728,145.3571 C8.17723311,145.2061 8.67956424,144.9651 9.12408742,144.6331 C9.5686106,144.3001 9.93439536,143.8851 10.2214417,143.3871 C10.5094848,142.8891 10.6858987,142.3251 10.7526768,141.6961 M11.9357464,141.8211 C11.8490344,142.6431 11.6287662,143.3821 11.2729483,144.0371 C10.9171305,144.6921 10.4626404,145.2441 9.91047483,145.6931 C9.35531921,146.1421 8.7184351,146.4701 7.99583576,146.6751 C7.27323642,146.8811 6.50877616,146.9401 5.6994649,146.8551 C4.89015364,146.7691 4.15360066,146.5501 3.48880927,146.1971 C2.82700795,145.8451 2.27085563,145.3901 1.82433907,144.8351 C1.37582914,144.2791 1.04692185,143.6441 0.83662053,142.9291 C0.625322517,142.2151 0.562531126,141.4461 0.649243046,140.6241 C0.736951656,139.8021 0.957219868,139.0641 1.31303775,138.4091 C1.66785894,137.7541 2.12234901,137.2021 2.67551126,136.7531 C3.22867351,136.3031 3.8665543,135.9771 4.58915364,135.7711 C5.31274967,135.5661 6.07720993,135.5051 6.88652119,135.5911 C7.69583245,135.6771 8.43138874,135.8971 9.09618013,136.2491 C9.75798146,136.6021 10.3141338,137.0551 10.761647,137.6111 C11.2091603,138.1671 11.5380675,138.8011 11.7493656,139.5161 C11.9596669,140.2321 12.0224583,141.0001 11.9357464,141.8211" id="Fill-21" fill="#FFFFFF"></path>
                <polygon id="Fill-23" fill="#FFFFFF" points="2.39125563 129.7537 2.72016291 128.1657 12.7737623 123.8507 12.7797424 123.8197 3.99692119 121.9907 4.25805364 120.7327 14.8319245 122.9347 14.5040139 124.5227 4.44941788 128.8387 4.44244106 128.8687 13.2262589 130.6977 12.9651265 131.9557"></polygon>
                <path d="M8.50763543,111.6009 L8.49866523,111.6299 L12.9189798,115.3399 L14.2096917,111.1089 L8.50763543,111.6009 Z M6.76343013,111.6739 L7.11526126,110.5179 L18.7854897,109.2809 L18.3499368,110.7149 L15.4894401,110.9909 L13.9096884,116.1719 L16.1233341,118.0189 L15.6997414,119.4089 L6.76343013,111.6739 Z" id="Fill-25" fill="#FFFFFF"></path>
                <polygon id="Fill-27" fill="#FFFFFF" points="10.0591808 101.8372 10.5286212 100.6412 19.4719093 104.1702 21.2808993 99.5552 22.3892172 99.9932 20.1097901 105.8042"></polygon>
                <polygon id="Fill-29" fill="#FFFFFF" points="17.1844089 85.4446 18.1103328 83.7726 27.2898361 84.6896 27.3047864 84.6626 21.6994089 77.2986 22.6034056 75.6656 32.0430447 80.9316 31.4201142 82.0556 23.5014222 77.6376 23.4864719 77.6646 29.5214222 85.4796 29.1436772 86.1626 19.3422401 85.1416 19.3272897 85.1686 27.2459818 89.5866 26.624048 90.7106"></polygon>
                <path d="M29.4951096,68.2107 L29.4781659,68.2357 L32.5629175,73.1187 L35.0745732,69.4837 L29.4951096,68.2107 Z M27.8117023,67.7477 L28.4974242,66.7527 L39.9892454,69.1407 L39.1380732,70.3737 L36.330401,69.7617 L33.2536228,74.2147 L34.8014805,76.6497 L33.9752255,77.8457 L27.8117023,67.7477 Z" id="Fill-31" fill="#FFFFFF"></path>
                <path d="M40.4863937,54.9388 C39.9422017,54.9088 39.4328937,55.0068 38.9584699,55.2348 C38.4850427,55.4638 38.0823805,55.7778 37.7494864,56.1778 C37.3667579,56.6398 37.1066222,57.1438 36.9720692,57.6878 C36.8375162,58.2328 36.8106056,58.7788 36.8933308,59.3248 C36.9750593,59.8718 37.1594467,60.3988 37.4484864,60.9048 C37.7365295,61.4108 38.1053043,61.8538 38.5587977,62.2318 C39.0431884,62.6378 39.5604699,62.9368 40.107652,63.1288 C40.6568275,63.3218 41.2010195,63.4078 41.7402281,63.3878 C42.2794368,63.3668 42.800705,63.2388 43.3010427,62.9998 C43.8043705,62.7618 44.2508871,62.4078 44.6425858,61.9378 C45.0651818,61.4278 45.3432579,60.8908 45.4758175,60.3248 C45.6073805,59.7578 45.6103705,59.1688 45.4827944,58.5568 L46.7186884,58.3358 C46.9060659,59.1298 46.8980924,59.8898 46.6927745,60.6148 C46.4884533,61.3398 46.1087149,62.0358 45.5555526,62.7018 C45.0601983,63.2978 44.4890957,63.7628 43.841248,64.0968 C43.1924036,64.4318 42.5176454,64.6278 41.8149798,64.6848 C41.1123142,64.7418 40.4056619,64.6558 39.6960195,64.4268 C38.9853805,64.1988 38.3136123,63.8198 37.6807149,63.2908 C37.0697447,62.7808 36.588344,62.2008 36.2275427,61.5488 C35.8697315,60.8968 35.6514566,60.2198 35.5727182,59.5168 C35.4949765,58.8138 35.5567712,58.1088 35.759099,57.4018 C35.9634202,56.6958 36.3212315,56.0318 36.8355228,55.4128 C37.3049632,54.8488 37.8581255,54.3908 38.4930162,54.0388 C39.1299003,53.6878 39.8235957,53.5278 40.5780891,53.5608 L40.4863937,54.9388 Z" id="Fill-33" fill="#FFFFFF"></path>
                <polygon id="Fill-35" fill="#FFFFFF" points="43.0510732 48.763 43.9570632 47.853 47.195305 51.098 51.2697685 47.004 48.0315268 43.759 48.9355235 42.85 56.5791295 50.507 55.6751328 51.416 52.1109738 47.847 48.037507 51.941 51.5996725 55.51 50.6946791 56.42"></polygon>
                <polygon id="Fill-37" fill="#FFFFFF" points="53.1649722 39.0399 54.1287702 38.1929 61.2421377 46.3479 60.2783397 47.1939"></polygon>
                <polygon id="Fill-39" fill="#FFFFFF" points="58.4496152 34.4808 59.7373371 33.5008 70.1407742 36.8798 70.1646947 36.8618 64.7447013 29.6908 65.767304 28.9138 72.2926252 37.5478 71.0039066 38.5278 60.6014662 35.1488 60.5755523 35.1678 65.9965424 42.3388 64.9749364 43.1158"></polygon>
                <polygon id="Fill-41" fill="#FFFFFF" points="70.6245669 25.6204 76.3704775 21.9954 77.0023781 23.0054 72.3418616 25.9464 74.1448715 28.8224 78.4964146 26.0774 79.1303086 27.0884 74.7777689 29.8334 76.8249675 33.0984 81.7187093 30.0104 82.3526033 31.0204 76.3744642 34.7934"></polygon>
                <path d="M84.3450838,22.9671 L85.3577195,22.4341 C85.6716765,22.2681 85.9946036,22.0871 86.3225142,21.8921 C86.6514215,21.6951 86.9314911,21.4731 87.1637195,21.2251 C87.3939546,20.9761 87.5474447,20.6971 87.6211997,20.3871 C87.6949546,20.0771 87.6281765,19.7241 87.4198685,19.3261 C87.2404646,18.9831 87.0291666,18.7421 86.7859745,18.6061 C86.5407891,18.4691 86.2806533,18.4041 86.0005838,18.4061 C85.7205142,18.4081 85.4334679,18.4651 85.1394447,18.5731 C84.8464182,18.6811 84.5593719,18.8091 84.280299,18.9561 L82.685597,19.7951 L84.3450838,22.9671 Z M81.0001964,19.3351 L83.4450738,18.0481 C83.9045474,17.8061 84.3749844,17.5931 84.8583785,17.4071 C85.3417725,17.2231 85.8102162,17.1261 86.265703,17.1171 C86.720193,17.1091 87.1507626,17.2191 87.5574116,17.4481 C87.9640606,17.6771 88.3238652,18.0901 88.6358288,18.6871 C89.0046036,19.3921 89.0903189,20.0731 88.8929745,20.7291 C88.6956301,21.3851 88.2550937,21.9691 87.5693719,22.4791 L92.5946765,25.4691 L91.203299,26.2021 L86.3564017,23.2571 L84.8972493,24.0241 L87.1507626,28.3341 L86.0165308,28.9311 L81.0001964,19.3351 Z" id="Fill-43" fill="#FFFFFF"></path>
                <polygon id="Fill-45" fill="#FFFFFF" points="96.3203987 18.6551 90.180796 14.6021 91.6778225 13.9511 96.4051172 17.2341 97.3330344 11.4921 98.7473358 10.8771 97.4964914 18.1441 99.3473424 22.4271 98.1712497 22.9371"></polygon>
                <polygon id="Fill-47" fill="#FFFFFF" points="113.346832 11.2674 108.431164 7.3654 110.012909 6.9024 113.992687 10.1534 115.577422 5.2734 117.116309 4.8234 115.061137 10.7654 120.477144 15.1274 118.851544 15.6024 114.435217 11.8894 112.686028 17.4074 111.164084 17.8534"></polygon>
                <path d="M129.629637,4.4129 C129.223984,4.0469 128.767501,3.8029 128.255203,3.6819 C127.742905,3.5599 127.233597,3.5489 126.725286,3.6509 C126.136243,3.7679 125.619958,3.9959 125.174438,4.3349 C124.727922,4.6739 124.365127,5.0809 124.086054,5.5589 C123.807978,6.0349 123.6206,6.5609 123.527908,7.1369 C123.435216,7.7119 123.445183,8.2899 123.559802,8.8699 C123.683392,9.4899 123.89768,10.0489 124.202667,10.5439 C124.50865,11.0409 124.877425,11.4499 125.309988,11.7739 C125.742551,12.0989 126.227938,12.3269 126.767147,12.4599 C127.307352,12.5909 127.876461,12.5969 128.474475,12.4769 C129.122322,12.3479 129.676481,12.1049 130.132965,11.7489 C130.592438,11.3919 130.963206,10.9359 131.247263,10.3799 L132.347607,10.9879 C131.995776,11.7239 131.512382,12.3089 130.899418,12.7429 C130.285458,13.1769 129.553888,13.4789 128.706703,13.6479 C127.948223,13.7989 127.21167,13.7999 126.499037,13.6519 C125.785408,13.5029 125.137561,13.2289 124.555494,12.8299 C123.973428,12.4319 123.477077,11.9189 123.068435,11.2929 C122.658796,10.6669 122.373743,9.9489 122.213276,9.1389 C122.058789,8.3579 122.045832,7.6009 122.175402,6.8679 C122.304971,6.1339 122.560124,5.4699 122.938865,4.8739 C123.318604,4.2779 123.809971,3.7689 124.409978,3.3479 C125.010981,2.9279 125.705673,2.6369 126.493057,2.4799 C127.21167,2.3379 127.928289,2.3289 128.642915,2.4569 C129.357541,2.5839 129.998412,2.8989 130.563534,3.4009 L129.629637,4.4129 Z" id="Fill-49" fill="#FFFFFF"></path>
                <polygon id="Fill-51" fill="#FFFFFF" points="135.523655 1.2342 136.79842 1.1022 137.268857 5.6702 143.003804 5.0752 142.533367 0.5072 143.809129 0.3752 144.918443 11.1542 143.643678 11.2862 143.1254 6.2632 137.390453 6.8572 137.908731 11.8802 136.633967 12.0122"></polygon>
                <path d="M153.778508,1.659 L153.748607,1.66 L151.558882,7.008 L155.96923,6.963 L153.778508,1.659 Z M153.182488,0.012 L154.388481,0 L159.088866,10.789 L157.593832,10.804 L156.468571,8.153 L151.068511,8.207 L149.982121,10.882 L148.532935,10.896 L153.182488,0.012 Z" id="Fill-53" fill="#FFFFFF"></path>
                <polygon id="Fill-55" fill="#FFFFFF" points="163.647521 0.1634 165.259166 0.3014 170.727997 9.8034 170.759891 9.8054 171.521362 0.8384 172.799117 0.9484 171.88017 11.7454 170.268524 11.6064 164.798696 2.1064 164.769792 2.1034 164.006328 11.0704 162.72957 10.9604"></polygon>
                <path d="M185.886138,13.3582 C185.213373,13.5862 184.525658,13.7172 183.820002,13.7532 C183.11634,13.7872 182.419655,13.7402 181.727953,13.6122 C180.899704,13.4582 180.164148,13.1822 179.524274,12.7832 C178.8844,12.3832 178.356155,11.8922 177.942529,11.3052 C177.527906,10.7202 177.245843,10.0582 177.09335,9.3182 C176.937867,8.5792 176.938863,7.7942 177.09335,6.9612 C177.248833,6.1192 177.536876,5.3802 177.959473,4.7482 C178.381072,4.1162 178.897357,3.6052 179.50733,3.2152 C180.117304,2.8252 180.792062,2.5592 181.531605,2.4152 C182.273141,2.2732 183.041588,2.2762 183.840933,2.4252 C184.540608,2.5552 185.194436,2.7852 185.80142,3.1162 C186.40641,3.4462 186.917711,3.9152 187.33333,4.5212 L186.204082,5.3392 C185.916039,4.8802 185.535304,4.4982 185.059883,4.1922 C184.582469,3.8852 184.075155,3.6832 183.535946,3.5832 C182.923979,3.4682 182.338923,3.4742 181.778784,3.5972 C181.215655,3.7222 180.709337,3.9432 180.251857,4.2632 C179.794376,4.5822 179.408658,4.9932 179.092708,5.4962 C178.777754,5.9982 178.559479,6.5692 178.44187,7.2122 C178.326254,7.8432 178.326254,8.4512 178.440873,9.0322 C178.556489,9.6142 178.768784,10.1392 179.080747,10.6062 C179.390718,11.0752 179.798363,11.4692 180.298701,11.7902 C180.797045,12.1112 181.371138,12.3322 182.019982,12.4532 C182.450552,12.5322 182.910025,12.5642 183.400396,12.5462 C183.888774,12.5272 184.347251,12.4552 184.775827,12.3272 L185.377827,9.0622 L182.932949,8.6072 L183.150227,7.4332 L186.85492,8.1222 L185.886138,13.3582 Z" id="Fill-57" fill="#FFFFFF"></path>
                <polygon id="Fill-59" fill="#FFFFFF" points="193.370075 4.7977 199.912339 6.6157 199.595392 7.7657 194.288025 6.2917 193.386022 9.5667 198.338568 10.9427 198.020624 12.0937 193.066084 10.7157 192.040492 14.4337 197.611982 15.9817 197.295035 17.1307 190.487651 15.2397"></polygon>
            </g>
        </g>
    </g>
</svg>