<svg height="14" viewBox="0 0 16 14" width="16" xmlns="http://www.w3.org/2000/svg" xmlns:xlink="http://www.w3.org/1999/xlink"><defs><path id="a" d="m19.6711801 13.5937483c-.0921337-.2113973-.3040413-.3584563-.543589-.3584563h-2.3586235v-4.11765195c0-.32169156-.2671878-.588236-.5896558-.588236h-2.3586236c-.322468 0-.5896558.26654444-.5896558.588236v4.11765195h-2.3586235c-.2395477 0-.4514553.147059-.543589.3584563-.0921338.2205885-.0460669.4779418.1289872.6433831l4.1275911 4.117652c.1105605.1194854.2671878.1746326.4146018.1746326s.3040413-.0551472.4146018-.1746326l4.1275911-4.117652c.1750541-.1654413.221121-.4227946.1289872-.6433831zm2.6995183 1.9944877h-1.7689676c-.1658407 0-.2948279.1286766-.2948279.294118v3.235298h-10.61380578v-3.235298c0-.1654414-.12898722-.294118-.29482794-.294118h-1.76896762c-.16584072 0-.29482794.1286766-.29482794.294118v5.294124c0 .1654413.12898722.2941179.29482794.2941179h14.74139684c.1658408 0 .294828-.1286766.294828-.2941179v-5.294124c0-.1654414-.1289872-.294118-.294828-.294118z"/><mask id="b" fill="#fff"><use fill="#fff" fill-rule="evenodd" xlink:href="#a"/></mask></defs><g fill="#ed1d24" fill-rule="evenodd" transform="translate(-7 -8)"><use xlink:href="#a"/><g mask="url(#b)"><path d="m0 0h30v30h-30z"/></g></g></svg>