<svg xmlns="http://www.w3.org/2000/svg" xmlns:xlink="http://www.w3.org/1999/xlink" viewBox="0 0 30 30">
  <defs>
    <path d="M13.838 5c4.33 0 7.837 3.51 7.837 7.845a7.833 7.833 0 01-1.38 4.447l3.818 3.822c.256.256.412.624.412 1.003 0 .78-.646 1.426-1.425 1.426-.378 0-.746-.156-1.002-.423l-3.818-3.811A7.839 7.839 0 016 12.846 7.839 7.839 0 0113.838 5zm0 2.853a4.996 4.996 0 00-4.988 4.992 4.996 4.996 0 004.988 4.993c2.75 0 4.987-2.24 4.987-4.993a4.996 4.996 0 00-4.987-4.992z" id="a"/>
  </defs>
  <g fill="none" fill-rule="evenodd">
    <mask id="b" fill="#fff">
      <use xlink:href="#a"/>
    </mask>
    <use fill="#ED1D24" xlink:href="#a"/>
    <g mask="url(#b)" fill="#ED1D24">
      <path d="M0 0h30v30H0z"/>
    </g>
  </g>
</svg>
