<?xml version="1.0" standalone="no"?>
<!DOCTYPE svg PUBLIC "-//W3C//DTD SVG 20010904//EN"
 "http://www.w3.org/TR/2001/REC-SVG-20010904/DTD/svg10.dtd">
<svg version="1.0" xmlns="http://www.w3.org/2000/svg"
 width="317.000000pt" height="317.000000pt" viewBox="0 0 317.000000 317.000000"
 preserveAspectRatio="xMidYMid meet">
<metadata>
Created by potrace 1.11, written by Peter Selinger 2001-2013
</metadata>
<g transform="translate(0.000000,317.000000) scale(0.100000,-0.100000)"
fill="#000000" stroke="none">
<path d="M2435 3020 c3 -77 3 -140 0 -140 -4 0 -25 13 -48 29 -153 104 -382
191 -582 221 -88 14 -321 17 -400 7 -568 -77 -1029 -454 -1216 -995 -52 -149
-72 -271 -73 -437 -1 -179 7 -256 40 -393 62 -254 179 -472 352 -654 283 -297
639 -458 1044 -473 97 -3 82 5 224 -121 59 -52 74 -60 104 -58 19 1 63 3 98 5
34 1 62 5 62 9 0 4 -45 47 -100 95 -55 49 -100 89 -100 91 0 1 26 8 58 14 286
59 582 231 774 450 94 106 99 112 145 182 91 140 190 373 209 493 3 22 12 74
19 115 21 113 13 369 -13 496 -62 294 -188 531 -399 754 l-43 45 -1 85 c-1 47
-3 96 -4 110 -1 14 -3 37 -4 53 0 15 -9 35 -19 45 -69 66 -121 112 -127 112
-3 0 -3 -63 0 -140z m-698 25 c187 -22 383 -86 533 -175 67 -39 80 -50 60 -51
-58 -3 -148 -7 -190 -8 l-45 -1 75 -70 75 -70 144 4 143 3 59 -61 c162 -168
285 -397 338 -632 31 -134 33 -159 36 -296 7 -383 -134 -729 -410 -1003 -118
-118 -230 -199 -363 -263 -92 -45 -243 -99 -306 -109 l-41 -6 70 79 c38 43 72
81 75 84 3 3 11 13 19 23 13 16 12 17 -15 13 -16 -3 -62 -6 -103 -8 l-74 -3
-96 -108 c-52 -59 -102 -107 -110 -108 -62 -3 -159 4 -231 17 -14 2 -40 7 -59
10 -19 3 -45 10 -58 15 -13 5 -23 6 -23 4 0 -10 -182 60 -274 106 -320 160
-568 440 -683 774 -21 61 -31 98 -49 180 -67 299 -18 650 129 928 217 410 645
699 1087 733 47 4 86 7 87 8 5 4 147 -2 200 -9z"/>
<path d="M408 1943 c-3 -4 -4 -168 -4 -363 l1 -355 87 -1 88 -2 2 215 3 216
145 -194 c80 -107 154 -204 165 -216 18 -19 29 -21 95 -19 41 2 77 4 80 4 3 1
5 163 5 359 l-1 358 -87 3 -87 3 -2 -216 -3 -215 -161 212 -161 213 -81 3
c-44 1 -82 -1 -84 -5z"/>
<path d="M1164 1586 l0 -364 83 2 83 1 0 60 c1 33 1 133 1 223 -1 104 3 161 9
157 6 -3 10 -10 10 -14 0 -8 158 -342 166 -350 5 -6 106 -8 122 -3 6 2 12 8
12 13 0 13 163 349 169 349 3 0 6 -93 5 -207 0 -115 1 -213 3 -219 3 -7 34
-11 84 -10 l79 0 0 48 c1 26 1 172 1 323 0 151 0 293 -1 315 l0 40 -102 0
-103 -1 -103 -212 -104 -212 -104 213 -104 212 -103 0 -103 0 0 -364z"/>
<path d="M2151 1771 l121 -179 -126 -180 c-69 -99 -126 -182 -126 -185 0 -10
205 -4 218 6 7 5 41 54 77 109 36 54 70 96 75 93 5 -3 41 -52 80 -109 l70
-102 110 -1 c60 0 110 2 110 5 0 5 -15 27 -154 230 l-98 143 18 27 c9 15 61
91 116 169 54 79 98 145 98 148 0 3 -49 5 -108 5 l-109 0 -67 -101 c-37 -56
-71 -97 -75 -93 -5 5 -36 51 -70 102 l-62 92 -110 0 -109 0 121 -179z"/>
</g>
</svg>
